<?xml version="1.0" standalone="no"?>
<!DOCTYPE svg PUBLIC "-//W3C//DTD SVG 20010904//EN"
 "http://www.w3.org/TR/2001/REC-SVG-20010904/DTD/svg10.dtd">
<svg version="1.0" xmlns="http://www.w3.org/2000/svg"
 width="1024.000000pt" height="1024.000000pt" viewBox="0 0 1024.000000 1024.000000"
 preserveAspectRatio="xMidYMid meet">
<metadata>
Created by potrace 1.14, written by Peter Selinger 2001-2017
</metadata>
<g transform="translate(0.000000,1024.000000) scale(0.100000,-0.100000)"
fill="#000000" stroke="none">
<path d="M2098 8695 c-2 -1 -39 -5 -83 -9 -88 -7 -99 -8 -230 -37 -199 -43
-472 -149 -620 -242 -164 -102 -284 -193 -410 -310 l-50 -47 229 -229 230
-230 50 48 c119 113 219 183 366 257 182 91 399 151 553 153 l37 1 0 324 0
324 -34 0 c-19 0 -36 -1 -38 -3z"/>
<path d="M2313 8379 l2 -322 50 -4 c318 -22 635 -155 877 -366 38 -34 76 -66
82 -71 8 -6 84 63 240 218 l227 226 -48 46 c-64 62 -229 194 -278 224 -22 13
-42 27 -45 31 -9 11 -162 95 -250 136 -185 87 -384 147 -590 178 -25 4 -53 9
-63 11 -11 2 -61 6 -113 9 l-94 6 3 -322z"/>
<path d="M7800 8692 c-79 -6 -248 -35 -338 -58 -366 -95 -682 -271 -969 -541
l-34 -32 226 -226 c124 -124 228 -225 231 -225 3 0 36 27 72 61 245 223 584
364 922 384 l25 1 1 322 1 322 -51 -2 c-28 -2 -67 -4 -86 -6z"/>
<path d="M8080 8381 c0 -249 3 -323 13 -326 6 -2 39 -6 72 -9 88 -8 120 -14
221 -41 244 -66 471 -193 650 -365 l50 -49 230 230 229 229 -56 53 c-75 69
-152 134 -203 171 -257 188 -556 322 -850 381 -123 24 -159 29 -286 41 l-70 6
0 -321z"/>
<path d="M3652 7723 c-124 -126 -219 -229 -216 -235 4 -6 31 -45 60 -85 96
-134 194 -359 229 -524 30 -142 36 -210 37 -448 0 -193 1 -201 21 -207 32 -10
185 -118 257 -181 127 -112 230 -239 325 -400 l45 -78 -1 560 c-2 593 -7 693
-53 900 -50 229 -168 507 -300 704 -72 107 -156 213 -171 217 -5 1 -110 -99
-233 -223z"/>
<path d="M6348 7937 c-7 -8 -24 -29 -38 -47 -14 -19 -34 -45 -46 -59 -39 -49
-132 -196 -177 -281 -83 -159 -172 -407 -202 -565 -37 -196 -38 -217 -41 -820
l-3 -600 31 55 c71 127 150 234 253 344 52 54 168 149 245 200 47 30 93 61
102 68 15 11 17 45 22 273 6 298 16 366 88 565 51 141 119 266 217 397 l23 31
-227 226 c-124 124 -228 226 -230 226 -2 0 -10 -6 -17 -13z"/>
<path d="M571 7894 c-123 -140 -286 -439 -359 -659 -37 -109 -73 -255 -86
-345 -3 -19 -8 -51 -11 -70 -3 -19 -8 -103 -12 -185 l-6 -150 314 1 c173 1
319 2 325 3 8 1 12 34 13 99 1 97 3 118 16 202 31 206 126 443 245 610 25 36
49 70 52 76 4 5 -96 113 -221 238 l-228 228 -42 -48z"/>
<path d="M9407 7712 l-228 -228 34 -45 c178 -235 285 -556 291 -871 l1 -83
310 -1 c171 0 316 2 323 4 20 7 13 208 -12 392 -37 266 -170 611 -326 846 -68
103 -150 212 -160 213 -3 1 -108 -102 -233 -227z"/>
<path d="M2197 7914 c-1 -1 -36 -4 -79 -8 -42 -3 -82 -8 -90 -11 -7 -2 -26 -6
-43 -9 -151 -24 -334 -101 -490 -204 -112 -73 -272 -227 -346 -332 -178 -251
-261 -521 -254 -825 7 -352 147 -680 394 -925 97 -96 125 -118 250 -198 102
-65 297 -145 421 -171 225 -48 467 -42 659 15 64 19 63 25 -2 14 -52 -8 -193
-6 -275 4 -140 18 -350 103 -467 191 -60 45 -215 193 -215 205 0 4 -9 18 -21
31 -32 37 -94 147 -123 219 -93 228 -105 480 -33 710 59 192 181 377 324 491
94 75 172 112 308 146 11 3 65 7 120 9 130 4 227 -16 335 -71 196 -99 330
-266 380 -476 19 -81 20 -117 20 -1123 0 -572 2 -1041 3 -1043 9 -9 159 109
237 186 96 94 156 171 230 297 68 115 142 319 157 434 3 19 8 62 13 95 9 70 7
1143 -3 1165 -3 8 -9 33 -11 55 -8 62 -15 89 -42 178 -123 387 -421 706 -799
854 -122 48 -139 53 -280 78 -66 12 -270 26 -278 19z"/>
<path d="M7937 7914 c-1 -1 -33 -4 -72 -7 -114 -10 -314 -56 -339 -79 -6 -4
-17 -8 -24 -8 -8 0 -56 -21 -106 -46 -337 -170 -589 -461 -699 -809 -60 -189
-62 -221 -62 -815 0 -497 3 -605 20 -695 38 -196 133 -411 253 -570 81 -107
228 -245 329 -308 l41 -26 0 1017 c0 559 3 1037 6 1062 20 138 54 231 126 336
174 251 518 366 808 268 161 -54 303 -168 418 -336 43 -62 108 -199 130 -273
22 -73 20 -65 40 -177 3 -18 6 -82 6 -143 0 -494 -357 -928 -847 -1030 -93
-19 -264 -26 -332 -14 -25 5 -48 7 -50 5 -5 -5 97 -36 137 -42 14 -2 35 -7 48
-9 95 -22 353 -22 432 0 8 2 31 6 50 9 163 25 368 112 527 222 268 187 469
480 542 792 31 135 33 148 35 289 3 152 -5 229 -39 363 -117 466 -490 847
-950 972 -106 29 -129 34 -220 43 -63 7 -203 13 -208 9z"/>
<path d="M132 6342 c-25 -4 -25 -9 0 -147 5 -33 12 -73 15 -90 25 -164 156
-488 275 -680 90 -145 294 -395 323 -395 6 0 111 101 234 224 l224 225 -46 48
c-154 160 -280 377 -343 588 -24 80 -43 162 -46 195 -2 26 -6 30 -33 31 -112
3 -584 3 -603 1z"/>
<path d="M9494 6339 c-2 -4 -11 -40 -19 -80 -34 -162 -115 -363 -201 -501 -50
-80 -148 -202 -209 -260 -19 -18 -16 -21 210 -248 l230 -230 40 44 c128 138
167 187 251 313 88 130 216 392 248 508 2 6 6 17 9 25 8 18 47 176 53 210 3
14 9 48 14 75 5 28 12 73 15 100 l6 50 -321 0 c-177 0 -324 -3 -326 -6z"/>
<path d="M3765 4807 c1 -694 5 -1278 9 -1297 3 -19 10 -55 16 -80 6 -25 12
-54 14 -65 9 -50 61 -186 100 -265 88 -177 195 -313 351 -444 52 -44 139 -106
149 -106 4 0 6 561 5 1248 -1 1307 0 1294 -44 1463 -55 211 -167 412 -330 588
-53 57 -199 177 -261 214 -9 5 -11 -308 -9 -1256z"/>
<path d="M6400 6010 c-101 -74 -237 -210 -301 -300 -118 -166 -207 -373 -235
-544 -3 -21 -8 -48 -12 -60 -7 -24 -13 -2556 -6 -2556 9 0 61 36 126 87 191
151 339 352 428 585 25 65 67 226 77 293 7 49 16 2107 11 2404 l-3 153 -85
-62z"/>
<path d="M1077 5152 l-228 -228 88 -66 c310 -235 656 -379 1033 -432 106 -14
468 -16 555 -2 89 14 149 26 153 31 7 7 8 635 1 646 -4 6 -31 4 -70 -6 -161
-39 -396 -52 -554 -30 -239 32 -513 143 -694 281 -24 19 -47 34 -50 34 -3 0
-109 -103 -234 -228z"/>
<path d="M8889 5346 c-141 -107 -346 -203 -534 -250 -218 -54 -484 -55 -709
-2 -38 9 -71 14 -74 12 -6 -6 -6 -646 1 -652 2 -2 15 -7 28 -9 23 -5 36 -7
159 -24 76 -11 411 -11 478 -1 70 12 194 32 217 36 11 2 68 17 127 34 263 74
498 192 731 368 l88 66 -228 228 c-125 125 -231 228 -234 228 -3 0 -26 -15
-50 -34z"/>
<path d="M3562 4959 c-128 -219 -302 -399 -507 -527 l-80 -49 0 -424 c0 -233
3 -455 7 -494 58 -546 328 -1059 744 -1410 109 -92 111 -93 213 -160 321 -210
646 -320 1036 -351 l80 -6 0 322 c0 315 -1 323 -20 325 -11 2 -48 5 -82 9
-435 41 -866 313 -1111 701 -85 136 -167 347 -196 506 -27 146 -28 179 -28
922 -1 400 -1 727 -2 727 -1 0 -25 -41 -54 -91z"/>
<path d="M6630 4310 c-2 -791 -1 -779 -25 -904 -56 -294 -198 -560 -414 -776
-268 -266 -592 -417 -961 -444 l-35 -3 0 -319 0 -319 60 1 c191 2 477 66 691
155 348 144 661 383 887 679 31 41 61 80 66 86 25 31 137 226 168 292 82 177
157 409 178 547 3 22 8 58 11 80 3 22 8 51 11 65 11 52 12 940 2 940 -18 0
-172 104 -243 164 -81 69 -173 165 -217 226 -18 25 -35 47 -39 50 -6 5 -82
125 -117 187 l-22 38 -1 -745z"/>
<path d="M4550 2868 l0 -404 33 -13 c111 -45 241 -81 357 -99 76 -12 361 -7
420 7 30 7 68 15 84 18 33 5 179 54 226 75 l30 13 0 397 c0 259 -4 398 -10
398 -5 0 -10 -4 -10 -8 0 -15 -96 -105 -155 -145 -143 -98 -329 -139 -510
-114 -147 20 -299 100 -404 213 l-61 65 0 -403z"/>
</g>
</svg>
