<svg width="101" height="50" viewBox="0 0 101 50" fill="none" xmlns="http://www.w3.org/2000/svg">
<path d="M100.067 34.3055C98.0381 27.3155 96.0081 20.3245 93.9781 13.3325C93.0751 10.2245 88.2192 11.5485 89.1261 14.6715C90.1681 18.2605 91.2111 21.8515 92.2531 25.4405C82.2981 14.1845 69.5051 4.50551 54.8642 1.02351C38.7822 -2.80149 22.0032 4.45551 11.4902 16.7755C8.02715 20.8385 5.29215 25.4035 3.40515 30.3975C1.39515 35.7145 0.697146 41.4345 0.0131452 47.0435C-0.152855 48.4075 1.28414 49.5595 2.52914 49.5595C4.02614 49.5595 4.87915 48.4045 5.04515 47.0435C5.61015 42.4035 6.29415 37.7845 7.70915 33.3155C9.06315 29.0365 11.3351 25.0375 14.0911 21.5045C19.1922 14.9705 26.1182 10.0515 33.8702 7.16751C41.0982 4.47951 48.3762 4.37751 55.7762 6.45951C63.7402 8.69851 71.0761 13.1345 77.4901 18.2805C82.4121 22.2295 86.8792 26.7405 90.9121 31.5955C86.9261 31.0845 82.9392 30.5735 78.9532 30.0625C77.5892 29.8885 76.4371 31.3395 76.4371 32.5795C76.4371 34.0825 77.5921 34.9215 78.9531 35.0955C85.1822 35.8935 91.4111 36.6925 97.6411 37.4895C99.2841 37.7015 100.481 35.7285 100.067 34.3055Z" fill="#231F20"/>
</svg>
