<?xml version="1.0" encoding="utf-8"?>
<!-- Generator: Adobe Illustrator 16.0.0, SVG Export Plug-In . SVG Version: 6.00 Build 0)  -->
<!DOCTYPE svg PUBLIC "-//W3C//DTD SVG 1.1//EN" "http://www.w3.org/Graphics/SVG/1.1/DTD/svg11.dtd">
<svg version="1.1" id="Layer_1" xmlns="http://www.w3.org/2000/svg" xmlns:xlink="http://www.w3.org/1999/xlink" x="0px" y="0px"
	 width="133.938px" height="30px" viewBox="0 0 133.938 30" enable-background="new 0 0 133.938 30" xml:space="preserve">
<path fill="#FFFFFF" d="M4.461,4.641c1.076-1.121,2.561-1.848,4.214-1.94V0.004c-2.404,0.092-4.565,1.12-6.13,2.729L4.461,4.641z"/>
<path fill="#FFFFFF" d="M2.771,9.88H0.044c0.214,2.158,1.194,4.091,2.665,5.527L4.625,13.5C3.645,12.551,2.972,11.291,2.771,9.88z"
	/>
<path fill="#FFFFFF" d="M2.713,9.281C2.709,9.184,2.706,9.086,2.706,8.987c0-1.469,0.509-2.821,1.359-3.894L2.141,3.176
	C0.807,4.744,0,6.771,0,8.987c0,0.099,0.004,0.196,0.008,0.294H2.713z"/>
<path fill="#FFFFFF" d="M13.95,5.04c0.885,1.095,1.401,2.479,1.401,3.948v1.333c1.191,0.639,2.133,1.638,2.706,2.829V8.987
	c0-2.241-0.824-4.288-2.186-5.862L13.95,5.04z"/>
<path fill="#FFFFFF" d="M8.73,15.276v0.002c-1.379-0.064-2.644-0.571-3.655-1.381l-1.923,1.916c1.58,1.35,3.631,2.168,5.876,2.168
	c0.616,0,1.216-0.063,1.796-0.182v-2.773c-0.581,0.17-1.181,0.258-1.789,0.258C8.933,15.284,8.832,15.281,8.73,15.276z"/>
<path fill="#FFFFFF" d="M23.475,22.75c-0.547,0.73-1.422,1.203-2.408,1.203s-1.86-0.473-2.408-1.203v3.367
	c0.732,0.342,1.548,0.531,2.408,0.531s1.676-0.189,2.408-0.531V22.75z"/>
<path fill="#FFFFFF" d="M18.057,15.541c-0.106-1.909-1.163-3.57-2.706-4.52v9.94c0,0.08,0.003,0.16,0.01,0.239
	c0.081,1.937,1.14,3.626,2.696,4.591V15.541z"/>
<path fill="#FFFFFF" d="M15.465,2.684c-0.952-0.964-2.12-1.715-3.427-2.175C11.171,0.203,10.242,0.026,9.276,0v2.696
	c0.636,0.024,1.26,0.143,1.86,0.354c0.933,0.329,1.752,0.863,2.415,1.54L15.465,2.684z"/>
<path fill="#FFFFFF" d="M6.924,6.847c0.082-0.081,0.172-0.152,0.26-0.227c0.509-0.395,1.149-0.631,1.845-0.631
	c1.659,0,3.004,1.34,3.004,2.992c0,0.003,0,0.005,0,0.008h0.005v8.403c1.561-0.967,2.622-2.662,2.698-4.605
	c0.005-0.064,0.007-0.13,0.008-0.195V8.99c0-0.079-0.003-0.157-0.01-0.234c-0.119-3.031-2.633-5.461-5.706-5.461
	c-3.149,0-5.71,2.551-5.71,5.688c0,3.037,2.401,5.524,5.412,5.68v0.01c0.101,0.005,0.203,0.008,0.306,0.008
	c0.625,0,1.226-0.102,1.789-0.289v-0.014c-0.25,0.043-0.507,0.066-0.77,0.066c-2.462,0-4.458-1.987-4.458-4.44
	c0-1.219,0.495-2.322,1.293-3.124C6.902,6.869,6.913,6.858,6.924,6.847z"/>
<path fill="#FFFFFF" d="M14.961,22.648c-0.144-0.533-0.216-1.084-0.216-1.635v-5.769c-0.57,1.199-1.512,2.206-2.707,2.849v2.92
	c0,0.807,0.109,1.588,0.309,2.332c1.007,3.744,4.376,6.522,8.419,6.654v-2.697C18.035,27.174,15.673,25.297,14.961,22.648z"/>
<path fill="#FFFFFF" d="M37.667,4.641c-1.076-1.121-2.561-1.848-4.214-1.94V0.004c2.403,0.092,4.564,1.12,6.129,2.729L37.667,4.641z
	"/>
<path fill="#FFFFFF" d="M39.357,9.88h2.727c-0.214,2.158-1.194,4.091-2.665,5.527L37.503,13.5
	C38.483,12.551,39.155,11.291,39.357,9.88z"/>
<path fill="#FFFFFF" d="M39.414,9.281c0.005-0.097,0.008-0.195,0.008-0.294c0-1.469-0.509-2.821-1.359-3.894l1.925-1.917
	c1.334,1.568,2.141,3.595,2.141,5.811c0,0.099-0.004,0.196-0.007,0.294H39.414z"/>
<path fill="#FFFFFF" d="M28.178,5.04c-0.885,1.095-1.4,2.479-1.4,3.948v1.333c-1.191,0.639-2.133,1.638-2.707,2.829V8.987
	c0-2.241,0.824-4.288,2.186-5.862L28.178,5.04z"/>
<path fill="#FFFFFF" d="M33.398,15.276v0.002c1.379-0.064,2.644-0.571,3.655-1.381l1.922,1.916c-1.58,1.35-3.631,2.168-5.875,2.168
	c-0.616,0-1.216-0.063-1.796-0.182v-2.773c0.58,0.17,1.18,0.258,1.789,0.258C33.195,15.284,33.296,15.281,33.398,15.276z"/>
<path fill="#FFFFFF" d="M24.071,15.541c0.106-1.909,1.164-3.57,2.707-4.52v9.94c0,0.08-0.003,0.16-0.011,0.239
	c-0.081,1.937-1.14,3.626-2.696,4.591V15.541z"/>
<path fill="#FFFFFF" d="M26.663,2.684c0.952-0.964,2.12-1.715,3.427-2.175C30.958,0.203,31.886,0.026,32.852,0v2.696
	c-0.635,0.024-1.26,0.143-1.86,0.354c-0.934,0.329-1.752,0.863-2.415,1.54L26.663,2.684z"/>
<path fill="#FFFFFF" d="M35.202,6.847c-0.082-0.081-0.172-0.152-0.26-0.227c-0.509-0.395-1.149-0.631-1.845-0.631
	c-1.658,0-3.003,1.34-3.003,2.992c0,0.003,0,0.005,0,0.008h-0.005v8.403c-1.561-0.967-2.622-2.662-2.698-4.605
	c-0.005-0.064-0.007-0.13-0.008-0.195V8.99c0-0.079,0.003-0.157,0.01-0.234c0.119-3.031,2.633-5.461,5.705-5.461
	c3.149,0,5.71,2.551,5.71,5.688c0,3.037-2.401,5.524-5.412,5.68v0.01c-0.101,0.005-0.203,0.008-0.306,0.008
	c-0.625,0-1.226-0.102-1.789-0.289v-0.014c0.25,0.043,0.507,0.066,0.769,0.066c2.462,0,4.458-1.987,4.458-4.44
	c0-1.219-0.495-2.322-1.293-3.124C35.225,6.869,35.213,6.858,35.202,6.847z"/>
<path fill="#FFFFFF" d="M27.166,22.648c0.144-0.533,0.216-1.084,0.216-1.635v-5.769c0.57,1.199,1.512,2.206,2.706,2.849v2.92
	c0,0.807-0.108,1.588-0.309,2.332C28.772,27.09,25.403,29.868,21.36,30v-2.697C24.091,27.174,26.453,25.297,27.166,22.648z"/>
<path fill="#FFFFFF" d="M65.324,22.854c-1.511,1.536-3.452,2.157-5.583,2.157c-2.077,0-4.29-0.594-5.745-2.132
	C52.188,20.967,52,19.267,52,16.732l0.002-11.708h5.099l-0.002,11.708c0,1.807,0.295,3.802,2.588,3.802
	c2.4,0,2.535-1.914,2.535-3.802l0.002-11.708h5.098l-0.002,11.708C67.319,19.104,67.05,21.128,65.324,22.854z"/>
<path fill="#FFFFFF" d="M81.431,24.984l-7.606-12.138l-0.055,0.027l0.136,12.111h-4.882V5.025h4.397l7.712,12.542l0.055-0.054
	L80.972,5.025h4.882v19.959H81.431z"/>
<path fill="#FFFFFF" d="M87.55,24.984V5.025h5.099v19.959H87.55z"/>
<path fill="#FFFFFF" d="M104.84,25.355c-5.638,0-10.493-4.372-10.493-10.115c0-1.483,0.243-2.886,0.782-4.261
	c0.298-0.782,0.782-1.564,1.295-2.238c2.05-2.697,5.044-4.1,8.44-4.1c5.827,0,10.548,4.477,10.548,10.357
	C115.412,20.905,110.691,25.355,104.84,25.355z M104.893,9.118c-3.265,0-5.447,2.697-5.447,5.826c0,3.184,2.183,5.932,5.5,5.932
	c3.212,0,5.368-2.803,5.368-5.851C110.313,11.922,108.157,9.118,104.893,9.118z"/>
<path fill="#FFFFFF" d="M129.516,24.977l-7.605-12.137l-0.053,0.027l0.135,12.11h-4.882V5.018h4.396l7.713,12.541l0.057-0.053
	l-0.217-12.488h4.88v19.958H129.516z"/>
</svg>
