<svg width="193" height="180" viewBox="0 0 193 180" fill="none" xmlns="http://www.w3.org/2000/svg">
<g clip-path="url(#clip0_53_115)">
<path d="M176.713 156.763C176.713 156.763 172.163 147.675 171.898 141.867C171.634 136.06 167.605 105.187 164.324 94.8316C161.043 84.4761 147.907 70.2706 135.535 61.7604C132.823 59.9001 120.378 52.9373 120.378 52.9373L118.356 89.5369C118.356 89.5369 136.289 110.745 137.299 119.833C138.31 128.92 133.024 145.067 136.497 151.115C142.627 161.895 139.001 156.489 146.35 167.157L176.713 156.763Z" fill="white"/>
<path d="M146.359 167.567C146.227 167.568 146.104 167.501 146.031 167.39L144.619 165.289C140.992 160.018 140.992 160.018 139.684 157.597C139.042 156.418 138.08 154.629 136.193 151.308C134.132 147.675 135.046 140.882 136.025 133.663C136.699 128.721 137.389 123.612 136.971 119.842C135.985 110.979 118.3 89.9723 118.124 89.7629C118.062 89.6823 118.028 89.5835 118.028 89.4823L120.05 52.874C120.058 52.7357 120.137 52.6108 120.258 52.5452C120.377 52.4725 120.526 52.4725 120.644 52.5452C121.156 52.8337 133.144 59.5556 135.832 61.3684C147.234 69.2053 161.252 83.5302 164.773 94.6474C168.087 105.074 172.107 135.771 172.372 141.787C172.62 147.442 177.082 156.433 177.13 156.522C177.179 156.626 177.179 156.746 177.13 156.85C177.09 156.961 177.001 157.046 176.889 157.083L146.52 167.51C146.472 167.543 146.417 167.563 146.359 167.567ZM118.798 89.3859C120.402 91.3023 136.747 110.931 137.733 119.777C138.159 123.644 137.46 128.801 136.778 133.79C135.864 140.544 134.918 147.522 136.85 150.923C138.785 154.324 139.706 156.041 140.349 157.228C141.633 159.634 141.633 159.634 145.243 164.84L146.519 166.693L176.166 156.522C175.267 154.662 171.754 147.065 171.529 141.876C171.272 136.061 167.196 105.108 163.97 94.9532C160.922 85.328 148.613 71.211 135.333 62.067C133.007 60.4628 123.233 54.9524 120.779 53.5647L118.798 89.3859Z" fill="#231F20"/>
<path d="M16.2394 156.763C16.2394 156.763 20.7888 147.675 21.0536 141.867C21.3185 136.06 25.3461 105.187 28.6283 94.8316C31.9105 84.4761 45.0448 70.2706 57.417 61.7604C60.1292 59.9001 72.5734 52.9373 72.5734 52.9373L74.5955 89.5369C74.5955 89.5369 56.6628 110.745 55.6518 119.833C54.6407 128.92 59.9284 145.067 56.4542 151.115C50.3246 161.895 53.9506 156.489 46.6013 167.157L16.2394 156.763Z" fill="white"/>
<path d="M46.5926 167.567C46.5499 167.576 46.5064 167.576 46.4637 167.567L16.0948 157.14C15.9833 157.103 15.8948 157.017 15.8537 156.907C15.8054 156.803 15.8054 156.683 15.8537 156.579C15.9019 156.491 20.3635 147.499 20.6117 141.844C20.8766 135.828 24.8963 105.155 28.2101 94.7044C31.7326 83.5871 45.7499 69.2615 57.1514 61.4246C59.8391 59.5801 71.8264 52.8583 72.3402 52.6014C72.458 52.5295 72.6074 52.5295 72.7252 52.6014C72.8469 52.6678 72.9252 52.7919 72.9339 52.931L74.956 89.5385C74.956 89.6404 74.922 89.7392 74.8595 89.819C74.6833 90.0277 56.9988 111.035 56.0123 119.898C55.5949 123.669 56.285 128.778 56.9593 133.718C57.9379 140.937 58.8533 147.715 56.7909 151.365C54.9056 154.685 53.9427 156.473 53.3008 157.653C51.9933 160.059 51.9933 160.059 48.3665 165.345L46.9143 167.446C46.8313 167.534 46.7127 167.579 46.5926 167.567ZM16.7849 156.514L46.4321 166.685L47.708 164.832C51.319 159.602 51.319 159.602 52.6028 157.22C53.2447 156.033 54.2075 154.236 56.1008 150.915C57.9941 147.593 57.0881 140.535 56.1727 133.781C55.4905 128.793 54.7925 123.635 55.2178 119.77C56.2051 110.946 72.541 91.2944 74.1536 89.3773L72.1718 53.5711C69.7165 54.9587 59.9435 60.4771 57.617 62.0734C44.338 71.2015 32.029 85.3344 28.98 94.9596C25.7706 105.114 21.6789 136.068 21.422 141.883C21.1975 147.057 17.6837 154.654 16.7849 156.514Z" fill="#231F20"/>
<path d="M67.5347 0.400635H125.409C127.744 0.400635 129.638 2.29328 129.638 4.62768V128.36C129.638 130.695 127.744 132.587 125.409 132.587H67.5347C65.1988 132.587 63.3063 130.695 63.3063 128.36V4.62768C63.3063 2.29328 65.1996 0.400635 67.5347 0.400635Z" fill="white"/>
<path d="M125.417 132.988H67.5347C64.9798 132.983 62.9094 130.914 62.9047 128.36V4.6277C62.9094 2.07362 64.9798 0.00395125 67.5347 0H125.417C127.972 0.00395125 130.042 2.07441 130.046 4.6277V128.36C130.042 130.914 127.973 132.983 125.417 132.988ZM67.5347 0.802103C65.4224 0.806055 63.7118 2.51695 63.707 4.6277V128.36C63.711 130.472 65.4224 132.182 67.5347 132.187H125.417C127.529 132.182 129.24 130.472 129.245 128.36V4.6277C129.24 2.51695 127.529 0.806055 125.417 0.802103H67.5347V0.802103Z" fill="#231F20"/>
<path d="M126.156 12.3604H66.7885V114.091H126.156V12.3604Z" fill="white"/>
<path d="M126.164 114.491H66.7885C66.5687 114.488 66.3916 114.311 66.3877 114.091V12.3841C66.3877 12.1628 66.5671 11.9834 66.7885 11.9834H126.164C126.386 11.9834 126.565 12.1628 126.565 12.3841V114.091C126.56 114.311 126.383 114.488 126.164 114.491ZM67.1901 113.689H125.762V12.761H67.1901V113.689Z" fill="#231F20"/>
<path d="M90.827 119.032H102.115C103.551 119.032 104.715 120.195 104.715 121.631V125.945C104.715 127.38 103.551 128.544 102.115 128.544H90.827C89.3915 128.544 88.2271 127.38 88.2271 125.945V121.631C88.2278 120.195 89.3915 119.032 90.827 119.032Z" fill="white"/>
<path d="M102.093 128.954H90.8594C89.2041 128.949 87.8626 127.61 87.8586 125.954V121.639C87.8586 119.98 89.2009 118.635 90.8594 118.631H102.093C103.751 118.635 105.093 119.98 105.093 121.639V125.954C105.089 127.61 103.748 128.949 102.093 128.954ZM90.8594 119.433C89.6436 119.438 88.661 120.424 88.661 121.639V125.954C88.661 127.168 89.6452 128.152 90.8594 128.152H102.093C103.306 128.152 104.291 127.168 104.291 125.954V121.639C104.291 120.424 103.308 119.438 102.093 119.433H90.8594Z" fill="#E9E9E9"/>
<path d="M102.47 6.52904H85.5638C85.3441 6.52429 85.167 6.34807 85.163 6.12759C85.163 5.90632 85.3425 5.72693 85.5638 5.72693H102.47C102.691 5.72693 102.871 5.90632 102.871 6.12759C102.871 6.34886 102.691 6.52904 102.47 6.52904Z" fill="#E9E9E9"/>
<path d="M107.108 6.52904H104.844C104.624 6.52904 104.443 6.34886 104.443 6.12759C104.443 5.90632 104.624 5.72693 104.844 5.72693H107.108C107.328 5.72693 107.508 5.90632 107.508 6.12759C107.508 6.34886 107.329 6.52904 107.108 6.52904Z" fill="#E9E9E9"/>
<path d="M126.164 18.5045H66.7885C66.5687 18.5005 66.3916 18.3235 66.3877 18.1038C66.3877 17.8818 66.5671 17.7024 66.7885 17.7024H126.164C126.386 17.7024 126.565 17.8818 126.565 18.1038C126.56 18.3227 126.383 18.4998 126.164 18.5045Z" fill="#231F20"/>
<path d="M123.548 22.6265H120.266H120.122H96.3637C95.5352 22.6525 94.8752 23.3298 94.8712 24.1588V30.1583C94.8752 31.0023 95.559 31.6859 96.4032 31.6898H120.161C121.007 31.6898 121.693 31.0039 121.693 30.1583V24.5436L123.548 22.6265Z" fill="#E9E9E9"/>
<path d="M72.7339 52.3533H76.0153H76.1599H99.9179C100.764 52.3533 101.45 53.0392 101.45 53.8848V63.2216C101.455 64.0632 100.775 64.7491 99.9337 64.7531C99.9274 64.7531 99.9226 64.7531 99.9171 64.7531H76.1599C75.3133 64.7531 74.6271 64.0671 74.6271 63.2216V54.2459L72.7339 52.3533Z" fill="#E9E9E9"/>
<path d="M72.7339 82.48H76.0153H76.1599H104.162C105.006 82.4839 105.687 83.1691 105.687 84.0115V96.9495C105.687 97.7919 105.006 98.477 104.162 98.481H76.1599C75.3157 98.477 74.6319 97.7934 74.6271 96.9495V84.3718L72.7339 82.48Z" fill="#E9E9E9"/>
<path d="M123.548 68.5715H120.266H120.122H96.3637C95.5202 68.5937 94.853 69.293 94.8712 70.1354V76.1271C94.8712 76.9735 95.5574 77.6586 96.4032 77.6586H120.161C121.002 77.6634 121.69 76.9845 121.693 76.1429C121.693 76.1374 121.693 76.1318 121.693 76.1263V70.5116L123.548 68.5715Z" fill="#E9E9E9"/>
<path d="M90.3139 33.7919H119.536C120.705 33.7919 121.654 34.7402 121.654 35.9097V45.8155C121.654 46.9851 120.706 47.9334 119.536 47.9334H90.3139C89.1448 47.9334 88.1962 46.9851 88.1962 45.8155V35.9097C88.1954 34.7402 89.144 33.7919 90.3139 33.7919Z" fill="#E9E9E9"/>
<path d="M73.4643 103.656H119.488C121.327 103.656 122.818 105.146 122.818 106.984C122.818 108.822 121.327 110.313 119.488 110.313H73.4643C71.6255 110.313 70.1346 108.822 70.1346 106.984C70.1346 105.146 71.6248 103.656 73.4643 103.656Z" fill="white"/>
<path d="M119.488 110.714H73.4643C71.4042 110.714 69.7331 109.045 69.7331 106.984C69.7331 104.925 71.4034 103.254 73.4643 103.254H119.488C121.549 103.254 123.22 104.924 123.22 106.984C123.219 109.044 121.549 110.714 119.488 110.714ZM73.4643 104.056C71.8469 104.056 70.5355 105.367 70.5355 106.984C70.5355 108.602 71.8469 109.912 73.4643 109.912H119.488C121.106 109.912 122.416 108.602 122.416 106.984C122.416 105.367 121.106 104.056 119.488 104.056H73.4643Z" fill="#E9E9E9"/>
<path d="M50.5886 161.351C50.5886 161.351 63.6991 150.554 64.7102 138.178C65.7213 125.802 63.6991 113.001 65.2161 110.217C66.7331 107.433 77.2998 92.298 79.6263 88.2551C82.6587 82.9533 78.1101 78.1565 74.8121 80.178C71.5141 82.1994 58.6525 89.514 51.832 99.3637C48.7459 102.931 46.1941 106.926 44.2574 111.227" fill="white"/>
<path d="M50.5886 161.752C50.4669 161.749 50.353 161.694 50.2756 161.6C50.1372 161.429 50.1625 161.179 50.3317 161.038C50.4597 160.934 63.33 150.202 64.3087 138.147C64.6747 132.434 64.7015 126.705 64.3893 120.99C64.1806 115.503 64.0359 111.549 64.8628 110.025C65.6011 108.677 68.4414 104.458 71.4422 99.9983C74.6999 95.1849 78.0777 90.1399 79.2651 88.0545C80.8698 85.1906 80.1876 82.5117 78.752 81.124C77.8121 80.0587 76.2508 79.8043 75.0208 80.5147L74.1465 81.0521C69.8462 83.6512 58.4281 90.5414 52.1617 99.5897C49.0969 103.144 46.557 107.121 44.6195 111.395C44.5254 111.594 44.2914 111.682 44.0898 111.596C43.8914 111.499 43.8029 111.263 43.8898 111.059C45.8487 106.72 48.4266 102.689 51.5443 99.0911C57.8668 89.9471 69.3885 82.985 73.7291 80.3701L74.6034 79.8327C76.1433 78.9342 78.1014 79.2321 79.3054 80.5463C80.9662 82.1505 81.8089 85.2143 79.9639 88.4551C78.7607 90.5643 75.3742 95.5855 72.1086 100.447C69.1157 104.891 66.292 109.093 65.5695 110.408C64.847 111.724 64.9996 115.806 65.1924 120.957C65.5047 126.704 65.4778 132.465 65.1118 138.209C64.1008 150.61 50.9744 161.551 50.8455 161.655C50.7736 161.717 50.6827 161.751 50.5886 161.752Z" fill="#231F20"/>
<path d="M53.8944 179.975C54.3118 178.18 54.5514 176.347 54.6083 174.505C54.6083 172.18 52.2012 168.842 52.2012 168.842L53.662 161.351C53.662 161.351 15.9509 146.648 14.4339 148.67C12.9177 150.691 9.8845 161.351 9.8845 161.351C9.8845 161.351 5.07031 164.199 3.56993 167.166C2.69563 168.874 1.16283 175.051 -0.000793457 179.999L53.8944 179.975Z" fill="#426B32"/>
<path d="M142.363 161.351C142.363 161.351 129.253 150.554 128.242 138.178C127.231 125.802 129.253 113.001 127.737 110.217C126.22 107.434 115.652 92.298 113.326 88.2551C110.293 82.9533 114.843 78.1565 118.14 80.178C121.438 82.1994 134.3 89.514 141.12 99.3637C144.206 102.931 146.758 106.926 148.695 111.227" fill="white"/>
<path d="M142.363 161.752C142.269 161.751 142.179 161.717 142.106 161.656C141.978 161.552 128.851 150.611 127.84 138.21C127.474 132.466 127.448 126.705 127.76 120.957C127.952 115.807 128.106 111.741 127.382 110.409C126.66 109.077 123.836 104.891 120.844 100.448C117.578 95.587 114.192 90.5658 112.988 88.4558C111.143 85.2474 111.985 82.1512 113.646 80.547C114.85 79.232 116.808 78.9349 118.348 79.8334L119.222 80.3708C123.563 82.9857 135.084 89.9478 141.447 99.14C144.543 102.723 147.106 106.731 149.062 111.044C149.148 111.247 149.061 111.484 148.861 111.581C148.659 111.666 148.426 111.578 148.332 111.38C146.404 107.123 143.878 103.164 140.83 99.6213C134.522 90.5255 123.105 83.6353 118.805 81.0362L117.93 80.4988C116.7 79.7884 115.14 80.0436 114.2 81.1081C112.764 82.4958 112.049 85.1747 113.686 88.0386C114.873 90.124 118.251 95.1374 121.509 99.9816C124.51 104.443 127.35 108.66 128.088 110.008C128.891 111.533 128.77 115.488 128.562 120.973C128.249 126.689 128.277 132.417 128.643 138.13C129.621 150.163 142.492 160.919 142.62 161.023C142.789 161.164 142.815 161.413 142.676 161.585C142.602 161.684 142.487 161.745 142.363 161.752Z" fill="#231F20"/>
<path d="M48.334 172.131H48.2139L13.8726 161.744C13.6631 161.687 13.539 161.47 13.5952 161.262C13.5967 161.256 13.5983 161.251 13.5999 161.246C13.6687 161.035 13.8932 160.918 14.1058 160.981L48.4471 171.36C48.6597 171.423 48.7815 171.645 48.7198 171.858C48.6613 172.022 48.5072 172.13 48.334 172.131Z" fill="#231F20"/>
<path d="M139.057 179.976H192.927C191.772 175.051 190.232 168.874 189.357 167.142C187.841 164.174 183.043 161.327 183.043 161.327C183.043 161.327 180.01 150.668 178.493 148.645C176.977 146.625 139.265 161.327 139.265 161.327L140.725 168.818C140.725 168.818 138.318 172.155 138.318 174.481C138.384 176.333 138.631 178.173 139.057 179.976Z" fill="#426B32"/>
<path d="M176.713 162.377L145.758 171.739Z" fill="white"/>
<path d="M145.773 172.131C145.595 172.128 145.44 172.011 145.389 171.842C145.326 171.63 145.448 171.407 145.661 171.344L176.617 161.984C176.837 161.922 177.067 162.051 177.129 162.273C177.192 162.494 177.063 162.724 176.841 162.785L145.886 172.147L145.773 172.131Z" fill="#231F20"/>
<path d="M18.7588 20.9021H71.6746C74.9939 20.9021 77.684 23.5921 77.684 26.9104V51.1102C77.684 54.4285 74.9939 57.1177 71.6746 57.1177H18.7588C15.4394 57.1177 12.7493 54.4285 12.7493 51.1102V26.9104C12.7493 23.5921 15.4394 20.9021 18.7588 20.9021Z" fill="#426B32"/>
<path d="M29.5342 48.9038C35.8001 48.9038 40.8796 43.826 40.8796 37.5621C40.8796 31.2983 35.8001 26.2205 29.5342 26.2205C23.2683 26.2205 18.1888 31.2983 18.1888 37.5621C18.1888 43.826 23.2683 48.9038 29.5342 48.9038Z" fill="white"/>
<path d="M24.8409 31.5143C24.7066 33.0719 24.9002 34.6406 25.4109 36.1183C25.5382 36.549 25.7603 36.9465 26.0607 37.2816C26.4504 37.6087 26.9271 37.815 27.4322 37.875C28.2409 38.0315 29.063 38.1121 29.8875 38.1161C30.7405 38.1911 31.5927 37.9636 32.2946 37.4736C33.097 36.7995 33.0085 35.9579 33.3697 35.0673C33.6504 34.3861 34.4045 34.1688 34.6693 33.4228C34.7871 33.0356 34.8179 32.6278 34.7579 32.2279C34.6646 31.139 34.2227 30.1093 33.4978 29.2921C32.516 28.3865 31.2132 27.91 29.8789 27.9685C28.6433 27.9685 27.2876 27.6476 27.1587 29.1957C26.7034 29.0693 26.2141 29.1673 25.8425 29.4605C25.2615 29.9939 24.9034 30.7272 24.8409 31.5143Z" fill="white"/>
<path d="M29.984 38.5326H29.8797C29.0314 38.5231 28.1856 38.4369 27.3524 38.2757C26.7595 38.2117 26.1998 37.9683 25.7477 37.5779C25.3927 37.201 25.1334 36.7442 24.9935 36.2464C24.4591 34.7014 24.2591 33.0616 24.4078 31.4337C24.4813 30.5415 24.8947 29.711 25.5635 29.1151C25.9153 28.8457 26.3477 28.7018 26.7911 28.7058C27.1279 27.4224 28.3959 27.4706 29.3587 27.5188H29.8646C31.3184 27.439 32.7429 27.9574 33.8037 28.9539C34.5942 29.8477 35.0725 30.9738 35.1682 32.1623C35.2369 32.6238 35.2014 33.0956 35.0638 33.5421C34.8915 33.9515 34.6148 34.3079 34.2614 34.5766C34.048 34.7433 33.8733 34.9543 33.7484 35.1945C33.6528 35.4569 33.5753 35.724 33.516 35.9966C33.4172 36.6905 33.0757 37.3266 32.5532 37.7929C31.8053 38.3271 30.8986 38.5871 29.984 38.5326ZM25.2583 31.5704C25.124 33.0632 25.3097 34.5671 25.8038 35.9824C25.9074 36.3538 26.0939 36.6968 26.3493 36.9852C26.6789 37.2547 27.0805 37.4222 27.5042 37.4665C28.2979 37.6198 29.1034 37.7004 29.9113 37.7067C30.6749 37.7684 31.437 37.5732 32.0781 37.1536C32.4607 36.8019 32.7034 36.323 32.7603 35.8062C32.8283 35.498 32.92 35.1945 33.033 34.8998C33.1974 34.5378 33.448 34.2209 33.7626 33.9775C34.0093 33.7966 34.2029 33.5524 34.3239 33.2719C34.4227 32.9447 34.448 32.5993 34.3958 32.2611C34.312 31.2607 33.9097 30.3132 33.2488 29.5585C32.3144 28.7595 31.1065 28.3541 29.8789 28.4268H29.3413C28.0899 28.3707 27.6402 28.4268 27.5682 29.285C27.5603 29.4107 27.4955 29.5261 27.3911 29.598C27.2876 29.6675 27.1587 29.6881 27.0386 29.6541C26.7168 29.5624 26.3706 29.6312 26.1074 29.8382C25.6046 30.3029 25.3002 30.9438 25.2568 31.6273V31.5704H25.2583Z" fill="#231F20"/>
<path d="M28.6923 51.9194L27.0876 40.1526L32.7042 40.9065L34.6947 51.9194L39.5088 51.4864C39.38 45.8155 37.3104 41.0108 35.8338 39.9037C34.0607 38.5879 27.2489 38.8044 27.2489 38.8044C27.2489 38.8044 21.8252 41.1064 20.4205 43.6969C19.811 44.8198 19.4418 47.98 19.6181 51.9186H28.6923V51.9194Z" fill="#426B32"/>
<path d="M32.7279 37.5701L33.2812 40.6181C32.8599 41.7576 31.7223 42.4697 30.5129 42.3503C29.3034 42.1875 28.2291 41.4937 27.584 40.4569L27.0062 34.8422C27.0062 34.8422 28.4022 33.9033 27.6243 30.7518C29.3239 31.2773 31.1334 31.3358 32.8638 30.9202C32.8638 30.9202 34.1318 34.289 34.0512 35.8537C34.0828 36.67 33.5263 37.3923 32.7279 37.5701Z" fill="white"/>
<path d="M30.8749 42.7912C30.7357 42.7991 30.5966 42.7991 30.4575 42.7912C29.1192 42.5936 27.9397 41.8042 27.248 40.6417C27.2227 40.5943 27.2085 40.5429 27.2077 40.4892L26.6298 34.8753C26.6156 34.7251 26.6868 34.5789 26.8148 34.4975C26.8148 34.4975 27.9381 33.6235 27.2559 30.8402C27.2227 30.6925 27.2725 30.5399 27.384 30.4388C27.4962 30.3345 27.6583 30.3037 27.8014 30.3582C29.4251 30.8481 31.15 30.9011 32.8006 30.5107C33.0021 30.4649 33.2077 30.5747 33.282 30.7675C33.3381 30.9122 34.5824 34.2328 34.5017 35.8694C34.5152 36.73 34.0179 37.5171 33.2338 37.8751L33.7231 40.5698C33.7389 40.6409 33.7389 40.7152 33.7231 40.7863C33.2812 41.9804 32.1484 42.7778 30.8749 42.7912ZM27.9856 40.2814C28.5603 41.1886 29.5057 41.7963 30.5697 41.9417C31.5515 42.0476 32.4828 41.4865 32.8488 40.5698L32.2867 37.6419C32.2701 37.5297 32.2962 37.4151 32.3587 37.3211C32.4251 37.2342 32.5231 37.1757 32.6314 37.1607C33.2496 37.0153 33.6669 36.4376 33.61 35.8054C33.6662 34.6184 32.8717 32.2437 32.5674 31.3697C31.1033 31.6621 29.5935 31.6408 28.1381 31.3049C28.5073 33.5184 27.7856 34.5852 27.4085 34.9788L27.9856 40.2814Z" fill="#231F20"/>
<path d="M30.4812 33.0625C30.4812 33.0625 31.5966 34.6667 31.3397 34.9955C31.0828 35.325 30.3365 35.0998 30.3365 35.0998" fill="white"/>
<path d="M30.818 35.5566C30.6235 35.5542 30.4298 35.5297 30.2409 35.4847C30.0298 35.4341 29.8994 35.2215 29.95 35.0105C29.9508 35.0081 29.9516 35.0058 29.9516 35.0034C30.0069 34.7916 30.2188 34.6604 30.433 34.707C30.6053 34.7371 30.7816 34.7371 30.9547 34.707C30.7413 34.1926 30.4725 33.7026 30.1524 33.2475C30.0274 33.0696 30.0701 32.8247 30.248 32.6998C30.2504 32.6982 30.2535 32.6959 30.2567 32.6935C30.4385 32.567 30.6883 32.6113 30.8156 32.7931C30.8164 32.7946 30.818 32.7962 30.8188 32.7978C32.1104 34.6984 31.7737 35.0674 31.6211 35.2041C31.4124 35.4254 31.1223 35.5526 30.818 35.5566Z" fill="#231F20"/>
<path d="M29.6187 32.7684C29.611 32.5207 29.5185 32.3225 29.4121 32.3258C29.3056 32.3291 29.2255 32.5326 29.2331 32.7804C29.2408 33.0281 29.3333 33.2263 29.4398 33.223C29.5463 33.2198 29.6264 33.0162 29.6187 32.7684Z" fill="#231F20"/>
<path d="M32.204 32.6015C32.1964 32.3537 32.1038 32.1555 31.9974 32.1588C31.8909 32.1621 31.8108 32.3656 31.8185 32.6134C31.8261 32.8612 31.9186 33.0593 32.0251 33.0561C32.1316 33.0528 32.2117 32.8492 32.204 32.6015Z" fill="#231F20"/>
<path d="M28.2109 33.8646C27.9919 33.5801 27.7192 33.3399 27.4085 33.1589C27.2559 33.0435 27.0702 32.9819 26.8789 32.9827C26.7239 32.9961 26.5761 33.0546 26.4536 33.151C26.0812 33.4236 25.8401 33.8393 25.788 34.2984C25.7642 34.511 25.7943 34.7268 25.8757 34.9243C26.0172 35.227 26.2615 35.4688 26.5658 35.6063C26.867 35.7485 27.1856 35.8513 27.5129 35.9113" fill="white"/>
<path d="M27.5532 36.3271H27.4568C27.0987 36.2615 26.75 36.1477 26.422 35.9904C26.0291 35.8087 25.7137 35.4933 25.5319 35.1006C25.4283 34.8461 25.3896 34.5711 25.4196 34.2985C25.4742 33.7263 25.7651 33.2032 26.222 32.8547C26.6346 32.5252 27.2212 32.5252 27.6346 32.8547C27.9745 33.0641 28.271 33.336 28.5089 33.6568C28.6417 33.8401 28.6006 34.0978 28.4164 34.2305C28.2322 34.3633 27.9753 34.3222 27.8425 34.1381C27.6654 33.9018 27.4481 33.6979 27.2006 33.5367C27.116 33.4742 27.0164 33.4363 26.9121 33.4245C26.8346 33.4371 26.7627 33.4703 26.7034 33.5209C26.4275 33.7224 26.2496 34.0314 26.2141 34.3712C26.1967 34.515 26.2125 34.6604 26.2623 34.7963C26.369 35.0065 26.5445 35.1733 26.7595 35.2697C27.0346 35.3914 27.3224 35.4831 27.618 35.5423C27.833 35.6253 27.939 35.8679 27.8552 36.0821C27.7998 36.2235 27.6726 36.3247 27.5216 36.3444L27.5532 36.3271Z" fill="#231F20"/>
<path d="M32.3429 35.9817L29.6393 36.2464C29.9176 36.6787 30.3935 36.9434 30.9073 36.9521C31.4931 36.8281 32.0085 36.4795 32.3429 35.9817Z" fill="#231F20"/>
<path d="M71.2975 32.4769H44.9799C44.7585 32.4769 44.5783 32.2975 44.5783 32.0762C44.5783 31.855 44.7585 31.6748 44.9799 31.6748H71.2975C71.5188 31.6748 71.6983 31.855 71.6983 32.0762C71.6983 32.2975 71.5196 32.4769 71.2975 32.4769Z" fill="white"/>
<path d="M71.2975 39.4067H44.9799C44.7585 39.4067 44.5783 39.2273 44.5783 39.006C44.5783 38.7847 44.7585 38.6053 44.9799 38.6053H71.2975C71.5188 38.6053 71.6983 38.7847 71.6983 39.006C71.6983 39.2273 71.5196 39.4067 71.2975 39.4067Z" fill="white"/>
<path d="M64.9995 46.345H44.9404C44.7191 46.345 44.5388 46.1656 44.5388 45.9443C44.5388 45.723 44.7191 45.5428 44.9404 45.5428H64.9995C65.2209 45.5428 65.4003 45.723 65.4003 45.9443C65.4003 46.1656 65.2209 46.345 64.9995 46.345Z" fill="white"/>
<path d="M71.6746 57.1168C71.6746 57.1168 84.0713 57.301 83.8863 57.1168C83.7013 56.9327 74.0817 48.2937 74.0817 48.2937L71.6746 57.1168Z" fill="#426B32"/>
<path d="M173.206 41.6849H120.29C116.971 41.6849 114.281 38.9949 114.281 35.6766V11.4776C114.281 8.15931 116.971 5.47009 120.29 5.47009H173.206C176.525 5.47009 179.216 8.15931 179.216 11.4776V35.6774C179.216 38.9949 176.526 41.6849 173.206 41.6849Z" fill="#426B32"/>
<path d="M131.596 33.4631C137.862 33.4631 142.941 28.3853 142.941 22.1215C142.941 15.8576 137.862 10.7798 131.596 10.7798C125.33 10.7798 120.25 15.8576 120.25 22.1215C120.25 28.3853 125.33 33.4631 131.596 33.4631Z" fill="white"/>
<path d="M173.359 17.0362H147.025C146.803 17.0362 146.623 16.8561 146.623 16.6348C146.623 16.4135 146.803 16.2341 147.025 16.2341H173.342C173.564 16.2341 173.743 16.4135 173.743 16.6348C173.743 16.8561 173.564 17.0362 173.342 17.0362H173.359Z" fill="white"/>
<path d="M173.359 23.9746H147.025C146.803 23.9746 146.623 23.7944 146.623 23.5731C146.623 23.3519 146.803 23.1725 147.025 23.1725H173.342C173.564 23.1725 173.743 23.3519 173.743 23.5731C173.743 23.7889 173.573 23.9659 173.359 23.9746Z" fill="white"/>
<path d="M167.084 30.9129H147.025C146.803 30.9129 146.623 30.7328 146.623 30.5115C146.623 30.2902 146.803 30.1108 147.025 30.1108H167.084C167.305 30.1108 167.486 30.2902 167.486 30.5115C167.486 30.7328 167.305 30.9129 167.084 30.9129Z" fill="white"/>
<path d="M120.29 41.677C120.29 41.677 107.901 41.8612 108.078 41.677C108.255 41.4929 117.883 32.8539 117.883 32.8539L120.29 41.677Z" fill="#426B32"/>
<path d="M129.373 12.7854H129.677C130.156 12.8873 130.622 13.0438 131.066 13.2501C131.845 12.8123 132.787 12.7712 133.601 13.1379C136.289 14.1004 140.823 19.8834 138.256 22.7631C137.647 23.2728 136.889 23.5715 136.098 23.6134C133.861 23.9896 131.59 24.1105 129.326 23.9745C128.494 23.9753 127.671 23.7928 126.919 23.4372C124.696 22.2257 126.004 17.4534 126.847 15.609C127.208 14.7405 127.694 13.9297 128.29 13.2027C128.597 12.9498 128.976 12.8036 129.373 12.7854Z" fill="white"/>
<path d="M131.138 24.4155C130.529 24.4155 129.911 24.4155 129.301 24.3594C128.424 24.3491 127.559 24.1492 126.766 23.7738C124.318 22.4423 125.563 17.6059 126.541 15.4723C126.907 14.5674 127.416 13.7282 128.05 12.9861C128.412 12.6605 128.872 12.4638 129.357 12.425H129.703C130.174 12.5151 130.634 12.655 131.074 12.8423C131.929 12.4693 132.9 12.4693 133.754 12.8423C135.72 13.548 138.569 16.5723 139.258 19.4275C139.662 20.6666 139.395 22.0266 138.552 23.0207C137.888 23.6253 137.041 23.9896 136.145 24.056C134.489 24.3152 132.815 24.4353 131.138 24.4155ZM129.437 13.1861C129.118 13.205 128.815 13.3259 128.57 13.5314C128.003 14.2173 127.543 14.9855 127.206 15.8089C126.259 17.8707 125.256 22.1459 127.118 23.1645C127.827 23.4783 128.597 23.6316 129.373 23.6134C131.609 23.7572 133.855 23.6387 136.065 23.261C136.793 23.2159 137.486 22.9346 138.039 22.4589C138.722 21.6496 138.926 20.5385 138.576 19.5389C137.934 16.9484 135.295 14.0925 133.537 13.4666C132.829 13.1592 132.02 13.1829 131.331 13.5314C131.201 13.6318 131.019 13.6318 130.889 13.5314C130.504 13.3797 130.111 13.2516 129.71 13.1465H129.469L129.437 13.1861Z" fill="#231F20"/>
<path d="M127.712 34.1214C128.041 30.5677 128.289 26.1004 128.289 26.0198L133.256 26.2205L132.903 34.1214L142.475 32.4366C141.683 30.6988 140.704 29.0528 139.555 27.5276C137.317 24.5199 132.414 24.4962 132.285 24.4962C132.414 24.4962 134.629 24.4962 128.274 24.135C121.398 23.7423 119.352 31.9316 119.352 31.9316L120.33 32.4374L127.712 34.1214Z" fill="#426B32"/>
<path d="M128.996 23.2128L128.435 26.2924C128.414 27.1783 129.115 27.9132 130.001 27.9338C130.129 27.9369 130.258 27.9243 130.384 27.8966C131.571 27.7907 132.65 27.1609 133.329 26.1802L133.954 22.3617C134.266 20.9345 134.499 19.4915 134.653 18.0382C133.16 18.5195 131.323 16.6348 130.857 15.4154C130.619 16.1827 130.798 17.0188 131.331 17.621C130.49 17.3262 129.838 16.6506 129.574 15.8003C129.13 16.133 128.717 16.5036 128.338 16.9066C128.009 17.3713 127.757 17.8857 127.592 18.431C127.303 19.3777 127.054 20.8373 127.537 21.7358C127.811 22.4004 128.334 22.9307 128.996 23.2128Z" fill="white"/>
<path d="M130.175 28.306C129.636 28.3305 129.109 28.1432 128.707 27.7844C128.316 27.3822 128.095 26.8456 128.09 26.2845C128.09 26.2363 128.468 24.1991 128.611 23.4294C128.017 23.0809 127.541 22.5648 127.239 21.9453C126.638 20.782 127.055 19.0577 127.239 18.3678C127.42 17.7933 127.69 17.252 128.042 16.7636C128.042 16.7636 129.229 15.4478 129.646 15.5126C129.788 15.5324 129.903 15.6327 129.944 15.7695C130.042 16.1029 130.216 16.4104 130.449 16.668C130.367 16.2381 130.395 15.794 130.529 15.3767C130.578 15.2281 130.711 15.1262 130.867 15.1199C131.023 15.1191 131.163 15.2147 131.22 15.3601C131.621 16.419 133.314 18.1679 134.558 17.7664C134.672 17.7277 134.799 17.749 134.895 17.8225C134.989 17.8944 135.043 18.0082 135.04 18.1276C134.958 19.1415 134.808 20.1498 134.591 21.1432C134.503 21.6007 134.414 22.0496 134.343 22.4984L133.708 26.3082C133.7 26.3564 133.685 26.4023 133.66 26.4442C132.931 27.526 131.75 28.2191 130.45 28.3289L130.175 28.306ZM128.819 26.3572C128.842 26.6931 128.981 27.0108 129.212 27.2557C129.542 27.5189 129.967 27.6327 130.384 27.5687C131.431 27.4849 132.389 26.9412 133 26.0854L133.617 22.3475C133.698 21.8986 133.786 21.4332 133.873 20.9756C134.034 20.1735 134.194 19.3311 134.275 18.5211C133.057 18.4113 131.95 17.768 131.25 16.7644C131.331 17.0062 131.459 17.2298 131.627 17.4219C131.731 17.5515 131.731 17.7348 131.627 17.8636C131.54 18.0075 131.362 18.0715 131.203 18.0161C130.421 17.7301 129.778 17.1564 129.406 16.4119C129.1 16.6846 128.699 17.0702 128.603 17.1579C128.303 17.587 128.073 18.0612 127.921 18.5614C127.534 19.5303 127.506 20.6058 127.84 21.5936C128.08 22.1515 128.521 22.598 129.076 22.8446C129.257 22.8951 129.369 23.0769 129.333 23.2618C129.333 23.3179 128.787 26.2213 128.771 26.3414L128.819 26.3572Z" fill="#231F20"/>
<path d="M133.834 20.1964C133.925 19.9767 134.09 19.7957 134.3 19.6827C134.495 19.5808 134.707 19.5128 134.925 19.4828C135.044 19.4551 135.168 19.4551 135.287 19.4828C135.37 19.5096 135.446 19.5531 135.511 19.6108C135.677 19.7246 135.794 19.8961 135.84 20.0921C135.861 20.2549 135.842 20.42 135.784 20.5733C135.737 20.7456 135.669 20.91 135.575 21.0625C135.393 21.3533 135.106 21.5627 134.772 21.6481C134.422 21.7216 134.057 21.6552 133.753 21.4639" fill="white"/>
<path d="M134.452 22.0092C134.129 22.0092 133.814 21.9144 133.545 21.7366C133.388 21.656 133.325 21.4624 133.405 21.3051C133.487 21.147 133.68 21.0846 133.837 21.1652C133.856 21.1747 133.874 21.1858 133.891 21.1992C134.356 21.5066 134.984 21.3786 135.291 20.9123C135.295 20.906 135.299 20.9005 135.302 20.8942C135.384 20.7693 135.444 20.631 135.479 20.4848C135.522 20.3837 135.538 20.273 135.528 20.164C135.495 20.0415 135.418 19.9356 135.311 19.8676C135.28 19.8368 135.241 19.8147 135.199 19.8028C135.127 19.787 135.054 19.787 134.982 19.8028C134.798 19.8273 134.62 19.8819 134.453 19.9633C134.307 20.0486 134.192 20.1774 134.124 20.3323C134.076 20.503 133.899 20.6034 133.729 20.5559C133.558 20.5085 133.458 20.3315 133.506 20.1608C133.513 20.1332 133.524 20.1079 133.538 20.0834C133.661 19.8005 133.873 19.5642 134.141 19.4093C134.367 19.2876 134.615 19.2086 134.871 19.177C135.036 19.1367 135.21 19.1367 135.376 19.177C135.495 19.2157 135.607 19.2757 135.705 19.3532C135.933 19.5191 136.095 19.7609 136.163 20.0352C136.189 20.2493 136.164 20.4666 136.09 20.6689C136.039 20.8673 135.958 21.057 135.85 21.23C135.548 21.716 135.024 22.0179 134.453 22.0321V22.0092H134.452Z" fill="#231F20"/>
<path d="M129.918 18.608C129.918 18.608 128.627 19.8677 128.812 20.2122C128.996 20.5576 129.686 20.4691 129.686 20.4691" fill="white"/>
<path d="M129.59 20.7899C129.18 20.8263 128.778 20.6651 128.507 20.3569C128.41 20.1965 128.169 19.8116 129.67 18.3512C129.806 18.2114 130.03 18.209 130.17 18.3449C130.172 18.3465 130.174 18.3489 130.176 18.3512C130.314 18.4919 130.314 18.7163 130.176 18.8562C129.801 19.2008 129.471 19.588 129.189 20.0116C129.348 20.0574 129.514 20.0764 129.678 20.0677C129.876 20.0977 130.012 20.2818 129.982 20.4786C129.959 20.6351 129.835 20.7583 129.678 20.782L129.59 20.7899Z" fill="#231F20"/>
<path d="M131.701 18.7035C131.576 18.6458 131.41 18.7394 131.33 18.9125C131.25 19.0856 131.286 19.2728 131.411 19.3305C131.536 19.3882 131.702 19.2946 131.782 19.1215C131.862 18.9484 131.826 18.7612 131.701 18.7035Z" fill="#231F20"/>
<path d="M128.969 18.2255C128.844 18.1678 128.678 18.2614 128.598 18.4345C128.518 18.6076 128.554 18.7947 128.679 18.8524C128.804 18.9101 128.97 18.8166 129.05 18.6434C129.13 18.4703 129.094 18.2832 128.969 18.2255Z" fill="#231F20"/>
<path d="M128.571 21.0309L130.794 21.1668C130.794 21.7073 130.356 22.1451 129.816 22.1459C129.742 22.1459 129.669 22.138 129.599 22.1214C129.028 22.0724 128.585 21.603 128.571 21.0309Z" fill="#231F20"/>
</g>
<defs>
<clipPath id="clip0_53_115">
<rect width="192.928" height="180" fill="white"/>
</clipPath>
</defs>
</svg>
