<?xml version="1.0" encoding="utf-8"?>
<!-- Generator: Adobe Illustrator 16.0.0, SVG Export Plug-In . SVG Version: 6.00 Build 0)  -->
<!DOCTYPE svg PUBLIC "-//W3C//DTD SVG 1.1//EN" "http://www.w3.org/Graphics/SVG/1.1/DTD/svg11.dtd">
<svg version="1.1" id="Layer_1" xmlns="http://www.w3.org/2000/svg" xmlns:xlink="http://www.w3.org/1999/xlink" x="0px" y="0px"
	 width="250px" height="136px" viewBox="0 0 250 136" enable-background="new 0 0 250 136" xml:space="preserve">
<path fill="#D1D3D4" d="M62.016,129.491C27.75,129.477-0.016,101.684,0,67.417C0.016,33.15,27.807,5.385,62.074,5.401
	c34.256,0.015,62.016,27.79,62.016,62.045C124.054,101.709,96.279,129.473,62.016,129.491z M62.016,6.124
	C28.145,6.14,0.7,33.611,0.716,67.482c0.015,33.872,27.486,61.316,61.357,61.3c33.863-0.017,61.304-27.474,61.3-61.336
	C123.335,33.582,95.881,6.144,62.016,6.124z"/>
<path fill="#D1D3D4" d="M187.962,129.491c-34.267,0.004-62.049-27.772-62.053-62.038c-0.005-34.267,27.772-62.049,62.038-62.053
	C222.214,5.397,249.996,33.172,250,67.438c0,0.003,0,0.006,0,0.008C249.964,101.695,222.211,129.452,187.962,129.491z
	 M187.962,6.124c-33.871-0.004-61.332,27.451-61.336,61.322c-0.004,33.871,27.45,61.332,61.322,61.336
	c33.87,0.004,61.331-27.45,61.336-61.322c0-0.005,0-0.01,0-0.015C249.244,33.595,221.813,6.164,187.962,6.124z"/>
<path fill="#FFFFFF" d="M6.045,133.102c0,0,10.394-26.754,12.099-32.771s1.855-20.636,1.848-20.894
	c0.072-2.502,0.311-4.996,0.716-7.464c0.528-2.114,1.193-4.19,1.992-6.218c1.547-4.159,4.05-7.896,7.306-10.909
	c5.38-4.728,12.65-6.504,19.477-8.682c11.124-3.538,21.144-8.746,31.645-13.717c2.729-1.289,5.616-2.571,8.596-2.399
	c1.626,0.093,3.374,0.716,4.147,2.149s0.357,3.209-0.43,4.621c-1.361,2.428-3.689,4.132-5.73,6.023
	c-1.819,1.691-5.544,5.838-3.539,8.545c1.604,2.149,5.73-0.974,7.965,1.146c1.168,1.117,1.089,3.088,0.309,4.499
	c-0.781,1.411-2.106,2.435-3.331,3.496c-3.245,2.808-6.017,6.338-8.596,9.727c-2.579,3.388-1.576,0.716-1.368,4.69
	c0.25,4.871,0.932,10.681-0.444,15.451c-2.206,7.614-15.135,17.033-20.772,21.84s-10.322,20.845-10.322,20.845L6.045,133.102z"/>
<path fill="#020B2A" d="M47.705,133.459H6.045c-0.12,0-0.233-0.059-0.301-0.157c-0.065-0.099-0.079-0.221-0.036-0.329
	c0.1-0.266,10.415-26.804,12.091-32.736c1.676-5.931,1.833-20.65,1.833-20.771c0.084-2.533,0.338-5.059,0.759-7.558
	c0.531-2.128,1.201-4.219,2.006-6.26c1.563-4.214,4.098-8.001,7.399-11.052c4.735-4.154,10.924-6.067,16.912-7.879l2.693-0.838
	c9.154-2.916,17.398-6.884,26.123-11.081c1.812-0.874,3.639-1.755,5.472-2.622c2.923-1.383,5.788-2.601,8.804-2.436
	c2.049,0.115,3.704,0.996,4.441,2.349c1.039,1.935,0.043,4.119-0.437,4.964c-1.089,1.956-2.793,3.453-4.434,4.899
	c-0.458,0.401-0.917,0.803-1.361,1.218c-0.938,0.867-5.515,5.344-3.495,8.065c0.666,0.896,1.919,0.716,3.374,0.452
	c1.454-0.265,3.302-0.537,4.548,0.652c1.246,1.189,1.203,3.445,0.379,4.928c-0.779,1.231-1.774,2.311-2.937,3.188l-0.472,0.408
	c-3.217,2.779-5.981,6.304-8.545,9.669c-0.456,0.615-0.946,1.204-1.469,1.764c-0.078,0.078-0.152,0.162-0.221,0.25
	c0,0,0.036,0.057,0.05,0.121c0.22,0.755,0.338,1.536,0.352,2.322c0.036,0.751,0.086,1.532,0.136,2.32
	c0.272,4.297,0.587,9.16-0.595,13.25c-1.876,6.447-11.331,14.197-17.584,19.305c-1.21,0.988-2.35,1.92-3.274,2.707
	c-5.465,4.691-10.157,20.515-10.207,20.672C47.989,133.381,47.853,133.466,47.705,133.459z M6.568,132.743h40.879
	c0.652-2.148,5.05-16.21,10.351-20.772c0.924-0.787,2.07-1.726,3.288-2.716c6.189-5.057,15.536-12.699,17.348-18.952
	c1.146-3.968,0.838-8.768,0.566-13.008c-0.05-0.796-0.1-1.569-0.136-2.321c-0.01-0.728-0.119-1.45-0.322-2.149
	c-0.15-0.515-0.05-0.644,0.336-1.06c0.508-0.542,0.986-1.11,1.433-1.705c2.579-3.401,5.38-6.955,8.646-9.784l0.473-0.409
	c1.096-0.821,2.035-1.833,2.772-2.986c0.716-1.247,0.831-3.045-0.244-4.069c-1.074-1.024-2.492-0.716-3.94-0.458
	c-1.447,0.258-3.138,0.516-4.061-0.716c-2.321-3.13,2.148-7.701,3.581-9.025c0.452-0.416,0.91-0.816,1.375-1.225
	c1.598-1.433,3.252-2.865,4.298-4.706c0.875-1.562,1.032-3.159,0.43-4.298c-0.602-1.139-2.056-1.877-3.847-1.977
	c-2.865-0.165-5.63,1.024-8.459,2.364l-5.472,2.622c-8.746,4.211-17.012,8.188-26.216,11.117c-0.896,0.287-1.798,0.566-2.701,0.838
	C41,49.182,34.89,51.065,30.256,55.126c-3.213,2.965-5.682,6.646-7.206,10.744c-0.794,2.011-1.454,4.071-1.977,6.167
	c-0.399,2.437-0.639,4.896-0.716,7.365c0,0.136-0.129,14.892-1.862,21.002C16.926,105.945,7.986,129.076,6.568,132.743z"/>
<path fill="#FFFFFF" d="M39.496,0.358h44.367c1.741,0,3.151,1.411,3.151,3.151v89.824c0,1.74-1.411,3.151-3.151,3.151H39.496
	c-1.74,0-3.151-1.411-3.151-3.151V3.509C36.345,1.769,37.755,0.358,39.496,0.358z"/>
<path fill="#020B2A" d="M83.862,96.85H39.496c-1.937-0.004-3.506-1.574-3.51-3.51V3.509c0.003-1.936,1.573-3.506,3.51-3.509h44.367
	c1.938,0.003,3.506,1.573,3.51,3.509V93.34C87.369,95.277,85.8,96.846,83.862,96.85z M39.496,0.716
	c-1.542,0.004-2.79,1.252-2.793,2.793V93.34c0.004,1.541,1.253,2.79,2.793,2.795h44.367c1.542-0.005,2.79-1.254,2.793-2.795V3.509
	c-0.003-1.541-1.252-2.79-2.793-2.793H39.496z"/>
<path fill="#426B32" d="M84.458,9.054H39.109v73.979h45.349V9.054z"/>
<path fill="#D1D3D4" d="M66.564,93.885H57.84c-1.265-0.004-2.288-1.028-2.292-2.293v-3.044c0-1.267,1.026-2.295,2.292-2.3h8.725
	c1.267,0.005,2.292,1.033,2.292,2.3v3.044C68.856,92.857,67.831,93.885,66.564,93.885z M57.84,86.966
	c-0.872,0.003-1.576,0.711-1.576,1.582v3.044c0.004,0.869,0.708,1.572,1.576,1.576h8.725c0.869-0.005,1.572-0.707,1.576-1.576
	v-3.044c0-0.871-0.704-1.579-1.576-1.582H57.84z"/>
<path fill="#D1D3D4" d="M65.454,5.064H52.561c-0.198,0-0.358-0.16-0.358-0.358c0-0.197,0.16-0.357,0.358-0.357h12.893
	c0.198,0,0.359,0.16,0.359,0.357C65.813,4.904,65.652,5.064,65.454,5.064z"/>
<path fill="#D1D3D4" d="M69,4.885h-1.734c-0.196-0.003-0.354-0.162-0.358-0.357c0-0.198,0.16-0.358,0.358-0.358H69
	c0.197,0,0.357,0.16,0.357,0.358C69.357,4.725,69.198,4.885,69,4.885z"/>
<path fill="#FFFFFF" d="M61.625,46.789c-9.252,0-16.754-7.501-16.754-16.754c0-9.252,7.501-16.754,16.754-16.754
	S78.38,20.781,78.38,30.034c0,0.002,0,0.005,0,0.007C78.368,39.288,70.873,46.781,61.625,46.789z M61.625,14.003
	c-8.857,0-16.038,7.18-16.038,16.038c0,8.858,7.181,16.038,16.038,16.038s16.038-7.181,16.038-16.038
	C77.656,21.188,70.48,14.012,61.625,14.003z"/>
<path fill="#020B2A" d="M49.61,51.981h24.132c4.236,0,7.671,3.435,7.671,7.672v0.007c0,4.237-3.435,7.671-7.671,7.671H49.61
	c-4.237,0-7.672-3.434-7.672-7.671v-0.007C41.939,55.416,45.373,51.981,49.61,51.981z"/>
<path fill="#FFFFFF" d="M54.738,57.562c-0.106-0.159-0.258-0.282-0.437-0.352c-0.182-0.072-0.377-0.108-0.573-0.107
	c-0.116,0-0.232,0.014-0.344,0.043c-0.109,0.019-0.212,0.063-0.301,0.129c-0.09,0.057-0.165,0.135-0.215,0.229
	c-0.059,0.102-0.089,0.219-0.086,0.336c-0.01,0.176,0.068,0.345,0.208,0.452c0.154,0.112,0.323,0.204,0.501,0.272l0.659,0.215
	c0.234,0.068,0.457,0.167,0.666,0.293c0.201,0.13,0.372,0.301,0.501,0.501c0.151,0.247,0.223,0.535,0.208,0.824
	c0.006,0.279-0.052,0.557-0.172,0.81c-0.11,0.224-0.27,0.419-0.466,0.573c-0.2,0.153-0.426,0.27-0.667,0.343
	c-0.264,0.075-0.536,0.114-0.809,0.115c-0.354-0.002-0.705-0.062-1.039-0.179c-0.333-0.122-0.626-0.33-0.853-0.602l0.773-0.716
	c0.123,0.189,0.294,0.342,0.494,0.444c0.198,0.106,0.42,0.16,0.645,0.157c0.122,0.001,0.242-0.015,0.358-0.05
	c0.117-0.029,0.229-0.077,0.33-0.144c0.098-0.063,0.179-0.149,0.236-0.25c0.057-0.105,0.087-0.224,0.086-0.344
	c0.013-0.187-0.062-0.369-0.201-0.495c-0.153-0.122-0.325-0.219-0.509-0.286c-0.2-0.079-0.415-0.15-0.659-0.223
	c-0.231-0.07-0.453-0.168-0.659-0.293c-0.203-0.12-0.375-0.287-0.501-0.487c-0.149-0.246-0.222-0.529-0.208-0.816
	c-0.006-0.27,0.058-0.537,0.187-0.774c0.116-0.216,0.28-0.402,0.48-0.544c0.216-0.152,0.458-0.262,0.716-0.322
	c0.547-0.154,1.128-0.142,1.669,0.036c0.285,0.092,0.547,0.246,0.766,0.451L54.738,57.562z"/>
<path fill="#FFFFFF" d="M56.593,56.322h3.818v0.924h-2.793v1.433h2.65v0.932h-2.65v1.569h2.944v0.924h-3.968V56.322z"/>
<path fill="#FFFFFF" d="M61.572,56.322h1.361l2.793,4.298v-4.298h1.06v5.766h-1.304l-2.865-4.426v4.426h-1.024L61.572,56.322z"/>
<path fill="#FFFFFF" d="M68.062,56.322h2.306c0.375,0,0.747,0.057,1.103,0.172c0.71,0.229,1.29,0.75,1.59,1.433
	c0.168,0.403,0.25,0.837,0.244,1.275c0.012,0.833-0.361,1.626-1.01,2.149c-0.294,0.237-0.629,0.417-0.989,0.53
	c-0.342,0.112-0.7,0.17-1.06,0.172h-2.149L68.062,56.322z M69.853,61.164c0.307,0,0.612-0.04,0.909-0.115
	c0.259-0.068,0.502-0.185,0.716-0.344c0.217-0.154,0.39-0.361,0.501-0.602c0.131-0.282,0.194-0.591,0.186-0.902
	c0.006-0.307-0.05-0.611-0.165-0.896c-0.097-0.237-0.252-0.443-0.452-0.602c-0.21-0.166-0.455-0.283-0.716-0.344
	c-0.281-0.08-0.574-0.119-0.866-0.115h-0.939v3.918h0.825V61.164z"/>
<path fill="#FFFFFF" d="M81.528,51.867c-0.612,2.842,1.197,5.643,4.04,6.254c0.612,0.132,1.243,0.153,1.862,0.063
	c0.966-0.147,1.879-0.534,2.658-1.125c1.455-1.054,2.374-2.693,2.515-4.484c0.165-2.865-2.271-5.409-5.114-5.73
	C84.837,46.488,82.051,49.474,81.528,51.867z"/>
<path fill="#020B2A" d="M86.699,58.593c-3.102,0.019-5.631-2.48-5.65-5.582c-0.002-0.411,0.041-0.821,0.127-1.224
	c0.588-2.693,3.546-5.68,6.354-5.329c3.123,0.339,5.474,2.999,5.43,6.138c-0.15,1.896-1.121,3.63-2.658,4.749
	c-0.828,0.625-1.797,1.037-2.822,1.196C87.222,58.577,86.96,58.594,86.699,58.593z M81.879,51.938
	c-0.57,2.654,1.12,5.266,3.773,5.835c0.568,0.122,1.152,0.142,1.728,0.06c0.905-0.144,1.761-0.508,2.492-1.06
	c1.369-0.993,2.236-2.534,2.371-4.22c0.15-2.579-2.048-5.014-4.799-5.379C85.066,46.882,82.395,49.553,81.879,51.938z"/>
<path fill="#FFFFFF" d="M80.518,66.4c-0.699,0.993-0.905,2.252-0.559,3.416c0.28,0.672,0.712,1.271,1.261,1.749
	c1.433,1.368,3.424,2.335,5.387,2.042c1.205-0.25,2.338-0.766,3.316-1.513c1.74-1.195,3.41-2.722,3.99-4.749
	c0.838-2.937-1.296-7.228-4.742-6.798C86.348,60.935,82.022,64.064,80.518,66.4z"/>
<path fill="#020B2A" d="M85.89,74.015c-1.859-0.08-3.618-0.864-4.921-2.191c-0.589-0.515-1.051-1.16-1.347-1.884
	c-0.389-1.27-0.169-2.646,0.595-3.732c1.547-2.399,5.967-5.645,8.911-6.017c1.449-0.167,2.882,0.426,3.789,1.569
	c1.317,1.58,1.813,3.687,1.34,5.687c-0.508,1.784-1.819,3.353-4.133,4.942c-1.021,0.777-2.203,1.313-3.459,1.569
	C86.408,73.998,86.149,74.017,85.89,74.015z M80.812,66.601c-0.638,0.897-0.828,2.038-0.516,3.095
	c0.261,0.62,0.661,1.171,1.168,1.611c1.314,1.389,3.188,2.103,5.092,1.941c1.149-0.236,2.231-0.726,3.166-1.433
	c2.149-1.489,3.388-2.937,3.847-4.548c0.418-1.767-0.026-3.627-1.196-5.015c-0.749-0.959-1.943-1.458-3.152-1.318
	c-2.722,0.336-6.969,3.467-8.409,5.694V66.601z"/>
<path fill="#FFFFFF" d="M82.266,75.841c-0.672,0.458-1.232,1.06-1.641,1.763c-0.825,1.665-0.616,3.656,0.537,5.113
	c1.165,1.419,2.855,2.306,4.685,2.457c2.158,0.265,4.327-0.405,5.96-1.84c1.62-1.475,2.341-3.693,1.898-5.838
	C92.387,71.973,85.704,73.334,82.266,75.841z"/>
<path fill="#020B2A" d="M86.721,85.583c-0.304,0.001-0.607-0.015-0.91-0.05c-1.929-0.164-3.709-1.103-4.935-2.601
	c-1.248-1.565-1.468-3.715-0.566-5.501c0.437-0.75,1.033-1.393,1.748-1.885c2.328-1.697,6.124-2.865,8.861-1.868
	c1.628,0.611,2.817,2.028,3.137,3.739c0.48,2.271-0.284,4.625-2.005,6.181C90.58,84.896,88.682,85.604,86.721,85.583z
	 M88.641,74.015c-2.224,0.088-4.371,0.836-6.167,2.149c-0.625,0.432-1.149,0.994-1.54,1.646c-0.748,1.542-0.55,3.374,0.509,4.721
	c1.107,1.345,2.712,2.185,4.448,2.328c2.057,0.244,4.12-0.393,5.68-1.754c1.516-1.391,2.193-3.473,1.784-5.487
	c-0.255-1.478-1.275-2.708-2.679-3.231C90.025,74.142,89.335,74.016,88.641,74.015z"/>
<path fill="#FFFFFF" d="M20.012,78.57c0,0-1.332-17.342,6.654-20.057c5.322-1.791,29.454,2.779,26.904,7.421
	c-2.55,4.643-17.857,1.992-17.857,1.992s3.704,16.646-3.703,24.525"/>
<path fill="#020B2A" d="M32.011,92.832c-0.09,0.002-0.178-0.032-0.243-0.094c-0.141-0.14-0.141-0.366-0.002-0.507l0.002-0.002
	c7.163-7.687,3.653-24.025,3.582-24.189c-0.029-0.116,0.007-0.24,0.093-0.322c0.081-0.087,0.198-0.127,0.315-0.107
	c0.158,0,15.085,2.549,17.484-1.812c0.253-0.48,0.147-1.071-0.257-1.432c-3.03-3.625-21.625-7.005-26.216-5.465
	c-7.636,2.564-6.447,19.483-6.447,19.655c0.016,0.197-0.13,0.369-0.328,0.386h-0.002c-0.194,0.006-0.361-0.136-0.387-0.329
	c-0.057-0.717-1.26-17.649,6.897-20.393c4.434-1.49,23.552,1.576,26.997,5.688c0.604,0.59,0.741,1.509,0.336,2.249
	c-2.406,4.369-14.956,2.687-17.714,2.256c0.573,2.93,2.865,17.056-3.904,24.354C32.158,92.811,32.085,92.833,32.011,92.832z"/>
<path fill="#020B2A" d="M2.707,134.318l8.746-21.258l42.304,8.873l-2.378,12.931L2.707,134.318z"/>
<path fill="#FFFFFF" d="M243.568,133.102c0,0-10.395-26.754-12.098-32.771c-0.768-3.099-1.226-6.267-1.369-9.455
	c-0.285-3.682-1.375-7.104-2.471-10.637c-2.328-7.499-5.136-14.839-8.41-21.976c-1.654-3.582-3.424-6.368-7.127-7.994
	c-3.875-1.705-7.98-2.815-12.006-4.097c-11.124-3.539-21.145-8.746-31.646-13.718c-2.728-1.289-5.615-2.571-8.594-2.399
	c-1.627,0.093-3.373,0.716-4.148,2.149c-0.774,1.433-0.357,3.209,0.429,4.62c1.362,2.429,3.69,4.133,5.731,6.024
	c1.82,1.69,5.543,5.838,3.539,8.545c-1.604,2.149-5.73-0.974-7.965,1.146c-1.168,1.117-1.09,3.087-0.309,4.498
	c0.779,1.411,2.105,2.436,3.33,3.495c3.245,2.808,6.018,6.339,8.596,9.728c2.578,3.388,1.576,0.716,1.368,4.691
	c-0.25,4.87-0.933,10.68,0.444,15.45c2.207,7.615,15.135,17.033,20.773,21.84c5.637,4.806,10.321,20.844,10.321,20.844
	L243.568,133.102z"/>
<path fill="#020B2A" d="M243.566,133.459h-41.658c-0.159,0-0.299-0.104-0.344-0.258c-0.049-0.157-4.741-15.98-10.207-20.672
	c-0.924-0.787-2.063-1.719-3.274-2.707c-6.252-5.107-15.707-12.836-17.584-19.305c-1.183-4.09-0.868-8.961-0.595-13.251
	c0.05-0.787,0.101-1.569,0.136-2.321c0.013-0.785,0.132-1.566,0.351-2.319c0.012-0.056,0.026-0.111,0.043-0.165
	c-0.078-0.063-0.15-0.132-0.215-0.208c-0.51-0.56-0.988-1.147-1.433-1.763c-2.563-3.366-5.328-6.89-8.545-9.669l-0.474-0.409
	c-1.16-0.877-2.156-1.957-2.936-3.188c-0.824-1.483-0.953-3.653,0.379-4.928c1.334-1.275,3.002-0.902,4.549-0.652
	s2.708,0.444,3.374-0.451c2.019-2.722-2.558-7.199-3.495-8.066c-0.445-0.415-0.902-0.816-1.363-1.217
	c-1.639-1.433-3.344-2.944-4.433-4.899c-0.479-0.846-1.476-3.03-0.437-4.964c0.717-1.354,2.393-2.235,4.441-2.35
	c3.008-0.165,5.881,1.053,8.803,2.435c1.834,0.867,3.66,1.748,5.474,2.622c8.724,4.197,16.968,8.166,26.123,11.081l2.75,0.852
	c3.164,0.902,6.274,1.988,9.312,3.252c3.711,1.626,5.543,4.298,7.313,8.173c3.276,7.152,6.09,14.507,8.423,22.019l0.102,0.337
	c1.08,3.481,2.105,6.776,2.386,10.387v0.164c0.14,3.119,0.586,6.217,1.331,9.248c1.677,5.931,11.992,32.469,12.092,32.734
	c0.053,0.104,0.053,0.227,0,0.33C243.863,133.448,243.711,133.499,243.566,133.459z M202.173,132.743h40.871
	c-1.433-3.666-10.358-26.798-11.919-32.312c-0.762-3.074-1.215-6.219-1.354-9.384v-0.144c-0.273-3.523-1.283-6.775-2.351-10.229
	l-0.106-0.329c-2.321-7.483-5.123-14.81-8.389-21.933c-1.697-3.689-3.445-6.282-6.947-7.815c-3.008-1.253-6.086-2.329-9.219-3.223
	c-0.917-0.287-1.834-0.566-2.75-0.86c-9.205-2.929-17.471-6.905-26.217-11.117l-5.473-2.622c-2.864-1.339-5.608-2.529-8.459-2.364
	c-1.789,0.101-3.23,0.838-3.846,1.977c-0.617,1.139-0.445,2.715,0.43,4.298c1.031,1.841,2.687,3.295,4.298,4.706
	c0.466,0.409,0.924,0.81,1.375,1.225c1.432,1.325,5.901,5.895,3.581,9.025c-0.924,1.246-2.521,0.982-4.061,0.716
	c-1.541-0.265-2.953-0.48-3.94,0.458c-0.988,0.938-0.937,2.823-0.243,4.069c0.736,1.154,1.676,2.165,2.771,2.986l0.474,0.409
	c3.266,2.829,6.067,6.382,8.646,9.784c0.445,0.594,0.924,1.162,1.432,1.705c0.388,0.416,0.486,0.544,0.338,1.061
	c-0.204,0.697-0.313,1.422-0.323,2.148c0,0.717-0.085,1.525-0.135,2.32c-0.273,4.242-0.581,9.041,0.565,13.01
	c1.813,6.252,11.159,13.895,17.348,18.951c1.219,0.988,2.365,1.926,3.289,2.715c5.293,4.557,9.662,18.609,10.307,20.767H202.173
	L202.173,132.743z"/>
<path fill="#FFFFFF" d="M210.116,96.492H165.75c-1.741,0-3.152-1.411-3.152-3.152V3.517c0-1.74,1.411-3.151,3.152-3.151h44.366
	c1.741,0,3.151,1.411,3.151,3.151V93.34C213.268,95.081,211.857,96.492,210.116,96.492z"/>
<path fill="#020B2A" d="M210.116,96.85h-44.367c-1.937-0.004-3.506-1.574-3.511-3.51V3.509c0.005-1.936,1.574-3.506,3.511-3.509
	h44.367c1.937,0.003,3.506,1.573,3.51,3.509V93.34C213.622,95.277,212.053,96.846,210.116,96.85z M165.749,0.716
	c-1.541,0.004-2.789,1.252-2.793,2.793V93.34c0.004,1.541,1.252,2.79,2.793,2.795h44.367c1.542-0.005,2.79-1.254,2.794-2.795V3.509
	c-0.004-1.541-1.252-2.79-2.794-2.793H165.749z"/>
<path fill="#426B32" d="M210.503,9.062h-45.349V83.04h45.349V9.062z"/>
<path fill="#D1D3D4" d="M191.771,93.885h-8.724c-1.266,0-2.292-1.027-2.292-2.293v-3.044c0-1.267,1.025-2.295,2.292-2.3h8.724
	c1.269,0.005,2.293,1.033,2.293,2.3v3.044C194.061,92.856,193.037,93.881,191.771,93.885z M183.048,86.966
	c-0.871,0.003-1.575,0.711-1.575,1.582v3.044c0.004,0.869,0.707,1.572,1.575,1.576h8.724c0.869-0.004,1.572-0.707,1.576-1.576
	v-3.044c0-0.871-0.703-1.579-1.576-1.582H183.048z"/>
<path fill="#D1D3D4" d="M197.066,5.064h-12.895c-0.197,0-0.357-0.16-0.357-0.358c0-0.197,0.16-0.357,0.357-0.357h12.895
	c0.197,0,0.357,0.16,0.357,0.357C197.424,4.904,197.264,5.064,197.066,5.064z"/>
<path fill="#D1D3D4" d="M182.346,4.885h-1.732c-0.198,0-0.359-0.16-0.359-0.357c0-0.198,0.161-0.358,0.359-0.358h1.732
	c0.197,0,0.358,0.16,0.358,0.358C182.701,4.723,182.542,4.881,182.346,4.885z"/>
<path fill="#FFFFFF" d="M187.84,62.797c-9.253,0.003-16.757-7.494-16.761-16.747c-0.004-9.253,7.494-16.758,16.746-16.761
	c9.254-0.004,16.758,7.494,16.761,16.747c0,0.005,0,0.01,0,0.015C204.575,55.295,197.084,62.785,187.84,62.797z M187.84,30.012
	c-8.857-0.003-16.041,7.173-16.044,16.031c-0.004,8.857,7.173,16.041,16.03,16.045c8.857,0.004,16.041-7.173,16.045-16.031
	c0-0.002,0-0.004,0-0.007C203.863,37.199,196.691,30.024,187.84,30.012z"/>
<path fill="#FFFFFF" d="M63.778,26.996v-2.594h5.934v-3.953H53.555v3.953h5.934v2.592c-4.823,0.222-8.449,1.177-8.449,2.32
	c0,1.146,3.628,2.1,8.449,2.323v8.31h4.29v-8.311c4.813-0.222,8.433-1.176,8.433-2.32c0-1.143-3.619-2.097-8.433-2.319
	L63.778,26.996z M63.779,30.933v-0.002c-0.121,0.007-0.743,0.045-2.128,0.045c-1.106,0-1.885-0.031-2.16-0.045v0.002
	c-4.261-0.189-7.441-0.93-7.441-1.818c0-0.887,3.181-1.628,7.441-1.817v2.896c0.279,0.02,1.077,0.067,2.179,0.067
	c1.323,0,1.989-0.055,2.111-0.067v-2.896c4.252,0.19,7.425,0.932,7.425,1.817c0,0.884-3.174,1.628-7.425,1.817"/>
<path fill="#FFFFFF" d="M189.979,43.229v-2.595h5.935v-3.953h-16.157v3.953h5.934v2.593c-4.823,0.222-8.449,1.177-8.449,2.32
	c0,1.145,3.628,2.101,8.449,2.324v8.31h4.289v-8.311c4.814-0.222,8.433-1.177,8.433-2.32s-3.618-2.097-8.433-2.319V43.229z
	 M189.98,47.165v-0.002c-0.121,0.007-0.744,0.044-2.129,0.044c-1.106,0-1.886-0.031-2.16-0.045v0.003
	c-4.26-0.189-7.441-0.929-7.441-1.818c0-0.888,3.182-1.628,7.441-1.816v2.896c0.279,0.02,1.076,0.068,2.179,0.068
	c1.323,0,1.987-0.055,2.11-0.068V43.53c4.252,0.189,7.424,0.931,7.424,1.816c0,0.883-3.174,1.628-7.424,1.816"/>
<path fill="#020B2A" d="M199.214,39.589c3.517,0,6.368-2.851,6.368-6.368c0-3.517-2.852-6.368-6.368-6.368
	c-3.516,0-6.366,2.851-6.366,6.368C192.848,36.739,195.698,39.589,199.214,39.589z"/>
<path fill="#FFFFFF" d="M203.491,31.101c-0.042,0.069-0.089,0.133-0.144,0.193l-5.014,5.014c-0.082,0.131-0.254,0.169-0.385,0.087
	c-0.036-0.022-0.065-0.052-0.088-0.087l-2.814-2.915c-0.125-0.084-0.158-0.253-0.074-0.378c0.021-0.029,0.045-0.054,0.074-0.073
	l0.717-0.638c0.094-0.117,0.266-0.134,0.383-0.04c0.015,0.012,0.027,0.025,0.039,0.04l1.67,1.698c0.172,0.172,0.301,0.179,0.472,0
	l3.897-3.882c0.084-0.128,0.258-0.164,0.387-0.079c0.031,0.021,0.058,0.047,0.078,0.079l0.66,0.666
	c0.049,0.059,0.094,0.122,0.135,0.187L203.491,31.101z"/>
<path fill="#FFFFFF" d="M166.846,53.5c0.607,2.848-1.209,5.648-4.056,6.256c-0.608,0.13-1.237,0.151-1.854,0.062
	c-0.965-0.15-1.877-0.537-2.658-1.125c-1.449-1.057-2.365-2.695-2.506-4.484c-0.164-2.865,2.271-5.408,5.106-5.73
	C163.536,48.128,166.352,51.071,166.846,53.5z"/>
<path fill="#020B2A" d="M161.667,60.219c-0.261-0.001-0.522-0.021-0.78-0.058c-1.023-0.162-1.99-0.572-2.814-1.196
	c-1.54-1.117-2.512-2.854-2.658-4.749c-0.044-3.136,2.303-5.792,5.422-6.131c2.801-0.358,5.773,2.628,6.354,5.322
	c0.662,3.03-1.26,6.022-4.291,6.683C162.494,60.178,162.081,60.221,161.667,60.219z M161.294,48.758
	c-0.121-0.008-0.243-0.008-0.366,0c-2.75,0.337-4.949,2.801-4.799,5.38c0.133,1.685,0.996,3.227,2.364,4.219
	c0.735,0.551,1.594,0.916,2.5,1.06c2.687,0.385,5.176-1.481,5.562-4.167c0.082-0.575,0.062-1.16-0.061-1.727
	C166,51.301,163.572,48.758,161.294,48.758z"/>
<path fill="#FFFFFF" d="M169.094,66.4c0.7,0.993,0.905,2.252,0.559,3.416c-0.279,0.672-0.711,1.271-1.26,1.749
	c-1.433,1.368-3.425,2.335-5.387,2.042c-1.205-0.25-2.338-0.766-3.316-1.513c-1.741-1.195-3.41-2.722-3.989-4.749
	c-0.839-2.937,1.296-7.228,4.741-6.798C163.264,60.935,167.591,64.064,169.094,66.4z"/>
<path fill="#020B2A" d="M163.723,74.015c-0.26,0.002-0.519-0.017-0.773-0.058c-1.258-0.256-2.44-0.791-3.461-1.569
	c-2.313-1.59-3.625-3.159-4.133-4.942c-0.473-2.001,0.023-4.108,1.34-5.688c0.908-1.143,2.34-1.736,3.789-1.569
	c2.945,0.373,7.363,3.582,8.912,6.017c0.76,1.083,0.98,2.458,0.594,3.725c-0.292,0.727-0.754,1.375-1.348,1.891
	C167.341,73.15,165.581,73.935,163.723,74.015z M159.955,60.878c-1.061,0.025-2.055,0.518-2.715,1.346
	c-1.17,1.387-1.614,3.248-1.196,5.014c0.458,1.611,1.683,3.059,3.847,4.549c0.936,0.707,2.017,1.195,3.166,1.432
	c1.903,0.162,3.778-0.553,5.092-1.941c0.509-0.441,0.908-0.992,1.168-1.611c0.313-1.056,0.123-2.197-0.516-3.095
	c-1.433-2.228-5.688-5.357-8.408-5.694C160.246,60.867,160.1,60.867,159.955,60.878z"/>
<path fill="#FFFFFF" d="M167.348,75.841c0.672,0.458,1.231,1.06,1.639,1.763c0.826,1.665,0.615,3.656-0.536,5.113
	c-1.165,1.419-2.854,2.306-4.685,2.457c-2.16,0.265-4.328-0.405-5.959-1.84c-1.621-1.475-2.343-3.693-1.899-5.838
	C157.227,71.973,163.909,73.334,167.348,75.841z"/>
<path fill="#020B2A" d="M162.891,85.583c-1.959,0.021-3.858-0.687-5.328-1.985c-1.722-1.556-2.484-3.91-2.006-6.182
	c0.319-1.709,1.51-3.127,3.137-3.738c2.736-1.017,6.533,0.172,8.861,1.869c0.715,0.49,1.311,1.134,1.747,1.884
	c0.902,1.786,0.683,3.935-0.565,5.501c-1.227,1.498-3.008,2.436-4.936,2.601C163.499,85.566,163.195,85.584,162.891,85.583z
	 M160.973,74.015c-0.693-0.012-1.382,0.103-2.035,0.337c-1.403,0.523-2.424,1.754-2.679,3.23c-0.409,2.015,0.267,4.098,1.783,5.486
	c1.562,1.362,3.624,2,5.681,1.755c1.736-0.144,3.34-0.983,4.447-2.328c1.059-1.347,1.257-3.179,0.51-4.721
	c-0.391-0.651-0.916-1.214-1.541-1.647C165.338,74.828,163.191,74.092,160.973,74.015z"/>
<path fill="#FFFFFF" d="M230.044,90.096c0,0-2.864-24.862-5.967-29.29c-3.101-4.426-13.315-23.301-15.664-23.251
	c-2.351,0.05-4.14,7.313-1.576,13.444c1.5,3.617,3.548,6.98,6.074,9.971c0,0-5.565,5.694,0.344,22.578"/>
<path fill="#020B2A" d="M230.044,90.453c-0.181-0.002-0.333-0.135-0.358-0.314c0-0.25-2.865-24.827-5.901-29.132
	c-0.968-1.368-2.586-4.083-4.464-7.22c-3.545-5.938-9.475-15.865-10.894-15.865c-0.501,0-0.917,0.495-1.182,0.896
	c-1.304,2.005-2.056,7.306-0.072,12.041c1.476,3.578,3.491,6.909,5.974,9.878c0.129,0.138,0.129,0.35,0,0.487
	c-0.049,0.057-5.313,5.788,0.43,22.206c0.066,0.182-0.03,0.383-0.213,0.448c-0.004,0.001-0.006,0.001-0.01,0.003
	c-0.177,0.069-0.375-0.02-0.444-0.196c-0.002-0.007-0.005-0.013-0.007-0.019c-5.314-15.185-1.482-21.41-0.48-22.692
	c-2.432-2.978-4.421-6.292-5.9-9.841c-1.963-4.7-1.434-10.258,0.135-12.707c0.346-0.681,1.011-1.142,1.769-1.225
	c1.705,0,5.853,6.719,11.526,16.209c1.869,3.13,3.48,5.831,4.433,7.163c3.124,4.455,5.91,28.438,6.032,29.454
	c0.02,0.199-0.124,0.379-0.323,0.4L230.044,90.453z"/>
<path fill="#FFFFFF" d="M246.893,134.318l-8.748-21.258l-42.304,8.873l2.378,12.931L246.893,134.318z"/>
<path fill="#020B2A" d="M198.219,135.221c-0.172-0.001-0.32-0.123-0.351-0.293l-2.378-12.93c-0.036-0.191,0.089-0.375,0.279-0.415
	l42.304-8.875c0.168-0.033,0.336,0.058,0.401,0.216l8.746,21.26c0.057,0.104,0.057,0.231,0,0.336
	c-0.064,0.101-0.176,0.16-0.294,0.158l-48.665,0.545h-0.043V135.221z M196.257,122.214l2.263,12.284l47.834-0.53l-8.424-20.493
	L196.257,122.214z"/>
<path fill="#231F20" d="M90.654,21.295c0,0,19.827-20.386,54.747-10.967l3.137-5.659l11.46,21.073l-22.728,1.691l2.922-6.655
	c0,0-20.771-9.533-48.027,3.811L90.654,21.295z"/>
</svg>
