<svg width="239" height="195" viewBox="0 0 239 195" fill="none" xmlns="http://www.w3.org/2000/svg">
<path d="M238.242 165.263H10.6351C10.5269 165.263 10.4232 165.22 10.3467 165.144C10.2703 165.068 10.2273 164.964 10.2273 164.856C10.2273 164.748 10.2703 164.644 10.3467 164.567C10.4232 164.491 10.5269 164.448 10.6351 164.448H238.242C238.351 164.448 238.454 164.491 238.531 164.567C238.607 164.644 238.65 164.748 238.65 164.856C238.65 164.964 238.607 165.068 238.531 165.144C238.454 165.22 238.351 165.263 238.242 165.263Z" fill="#D1D3D4"/>
<path d="M58.9347 90.0006C91.2763 90.0006 117.494 69.9428 117.494 45.2001C117.494 20.4575 91.2763 0.399658 58.9347 0.399658C26.5932 0.399658 0.375183 20.4575 0.375183 45.2001C0.375183 69.9428 26.5932 90.0006 58.9347 90.0006Z" fill="white"/>
<path d="M58.9592 90.4084C26.4497 90.4084 0 70.1328 0 45.2001C0 20.2675 26.4252 0 58.9592 0C91.4931 0 117.926 20.2756 117.926 45.2001C117.926 70.1246 91.4524 90.4084 58.9592 90.4084ZM58.9592 0.815592C26.8982 0.815592 0.815592 20.7242 0.815592 45.2001C0.815592 69.6761 26.9145 89.5928 58.9592 89.5928C91.0038 89.5928 117.111 69.6842 117.111 45.2001C117.111 20.716 91.0038 0.815592 58.9592 0.815592V0.815592Z" fill="#D1D3D4"/>
<path d="M124.011 25.9277C123.736 25.9359 123.462 25.9742 123.195 26.0419C120.137 26.8575 119.28 31.0496 122.714 32.1751C123.188 32.3037 123.684 32.3307 124.17 32.2543C124.655 32.178 125.119 32.0001 125.531 31.7322C125.942 31.4642 126.293 31.1124 126.56 30.6996C126.826 30.2869 127.003 29.8225 127.077 29.3369C127.133 28.9051 127.094 28.4665 126.964 28.051C126.835 27.6355 126.617 27.2529 126.326 26.9293C126.035 26.6056 125.677 26.3486 125.278 26.1758C124.878 26.0029 124.446 25.9183 124.011 25.9277Z" fill="white"/>
<path d="M123.619 32.7297C123.265 32.7293 122.913 32.6742 122.575 32.5666C121.844 32.3815 121.197 31.9526 120.742 31.3506C120.287 30.7487 120.05 30.0096 120.071 29.2553C120.119 28.4099 120.438 27.6023 120.979 26.9517C121.521 26.3011 122.258 25.842 123.081 25.6422C123.385 25.5641 123.697 25.5258 124.011 25.528V25.528C124.502 25.5182 124.989 25.6143 125.44 25.8098C125.89 26.0054 126.293 26.2957 126.621 26.661C126.949 27.0263 127.195 27.4581 127.341 27.9269C127.488 28.3957 127.531 28.8905 127.469 29.3776C127.401 29.9284 127.211 30.457 126.912 30.9243C126.612 31.3915 126.212 31.7856 125.74 32.0772C125.111 32.4947 124.374 32.7213 123.619 32.7297V32.7297ZM124.011 26.3436C123.766 26.3412 123.522 26.3714 123.285 26.4333C122.633 26.5878 122.047 26.9479 121.616 27.4604C121.184 27.973 120.928 28.6108 120.887 29.2797C120.873 29.8576 121.059 30.4225 121.412 30.8798C121.766 31.3372 122.266 31.6591 122.828 31.7918C123.244 31.9007 123.679 31.9214 124.103 31.8524C124.528 31.7835 124.933 31.6264 125.294 31.3913C125.654 31.1563 125.961 30.8484 126.195 30.4876C126.429 30.1267 126.585 29.7208 126.653 29.2961C126.703 28.9237 126.671 28.545 126.561 28.1859C126.45 27.8268 126.263 27.4958 126.013 27.2155C125.763 26.9352 125.456 26.7122 125.111 26.5617C124.767 26.4112 124.394 26.3368 124.019 26.3436H124.011Z" fill="#D1D3D4"/>
<path d="M195.261 109.469L212.119 105.195C211.483 103.988 201.239 73.2484 191.843 67.2701C183.777 60.566 167.58 59.9298 149.237 59.1958C143.366 58.8522 137.477 59.4273 131.783 60.9003C110.39 66.8134 95.3589 97.1534 95.3589 97.1534L116.434 101.321C116.434 101.321 113.082 132.656 110.146 170.858C110.146 170.858 143.732 178.419 196.207 175.475C196.207 175.475 194.763 114.901 195.261 109.469Z" fill="#426B32"/>
<path d="M143.96 69.8554L126.523 174.569L161.96 177.13L169.643 63.8608L143.96 69.8554Z" fill="#231F20"/>
<path d="M161.96 177.538L126.531 174.977C126.474 174.972 126.419 174.956 126.368 174.93C126.318 174.903 126.273 174.867 126.237 174.822C126.17 174.731 126.141 174.617 126.156 174.504L143.593 69.7903C143.604 69.7117 143.639 69.6385 143.693 69.5802C143.747 69.5219 143.817 69.4814 143.895 69.464L169.586 63.4613C169.647 63.4454 169.711 63.4454 169.773 63.461C169.834 63.4767 169.89 63.5077 169.937 63.551C169.986 63.5911 170.025 63.6423 170.05 63.7004C170.076 63.7586 170.087 63.822 170.083 63.8854L162.4 177.155C162.397 177.208 162.383 177.26 162.359 177.308C162.335 177.355 162.302 177.398 162.262 177.432C162.221 177.469 162.173 177.497 162.122 177.515C162.07 177.534 162.015 177.541 161.96 177.538V177.538ZM127.004 174.235L161.585 176.739L169.203 64.4155L144.311 70.2307L127.004 174.235Z" fill="#231F20"/>
<path d="M146.293 54.5549L143.03 68.2324C143.03 68.2324 145.828 77.4567 155.101 76.7472C157.844 76.5143 160.501 75.6732 162.878 74.2849C165.255 72.8967 167.293 70.9963 168.844 68.7217L172.832 43.5199C172.832 43.5199 166.789 38.9118 171.07 24.8592C163.259 26.8088 155.067 26.62 147.353 24.3127C147.353 24.3127 140.771 39.2381 140.722 46.3337C140.673 53.4294 146.293 54.5549 146.293 54.5549Z" fill="white"/>
<path d="M154.131 77.1795C145.445 77.1795 142.712 68.4282 142.655 68.3304C142.639 68.2606 142.639 68.188 142.655 68.1183L145.82 54.816C144.474 54.3837 140.298 52.5079 140.339 46.3094C140.388 39.2137 146.733 24.7451 147.01 24.1334C147.049 24.0429 147.119 23.9695 147.207 23.9274C147.296 23.8853 147.397 23.8773 147.492 23.9051C155.134 26.1709 163.242 26.3595 170.981 24.4515C171.052 24.4321 171.127 24.4317 171.199 24.4503C171.27 24.4689 171.336 24.5059 171.389 24.5575C171.441 24.6098 171.478 24.6756 171.495 24.7476C171.513 24.8196 171.509 24.895 171.486 24.9653C169.325 32.0691 169.855 36.6528 170.736 39.2463C171.166 40.7581 171.997 42.1251 173.142 43.202C173.2 43.2462 173.244 43.3051 173.272 43.3725C173.299 43.4399 173.308 43.5134 173.297 43.5853L169.301 68.7871C169.295 68.8403 169.276 68.8911 169.244 68.9339C167.652 71.2665 165.562 73.2163 163.124 74.6423C160.687 76.0683 157.963 76.9349 155.15 77.1795C154.799 77.1795 154.457 77.1795 154.131 77.1795ZM143.471 68.208C143.813 69.2438 146.66 76.9675 155.093 76.3639C157.755 76.1267 160.332 75.3085 162.643 73.9669C164.954 72.6254 166.943 70.7932 168.469 68.5995L172.416 43.7076C171.389 42.7779 166.935 37.8598 170.491 25.4628C162.929 27.1643 155.062 26.9456 147.606 24.8267C146.643 27.0532 141.187 40.0048 141.146 46.3583C141.097 53.0054 146.162 54.1309 146.374 54.1798C146.429 54.1872 146.481 54.2072 146.526 54.2384C146.572 54.2696 146.609 54.311 146.635 54.3593C146.666 54.4039 146.687 54.4547 146.697 54.5081C146.707 54.5615 146.705 54.6164 146.692 54.6692L143.471 68.208Z" fill="#231F20"/>
<path d="M167.694 42.2314C168.188 41.0601 169.046 40.0792 170.141 39.4339C171.2 38.8898 172.345 38.5312 173.525 38.3736C174.164 38.227 174.828 38.227 175.467 38.3736C175.904 38.515 176.309 38.7423 176.657 39.0424C177.547 39.6698 178.181 40.5962 178.443 41.6523C178.554 42.5178 178.451 43.3973 178.142 44.2133C177.884 45.1292 177.505 46.0068 177.016 46.8231C176.508 47.6247 175.846 48.3173 175.068 48.8607C174.29 49.4041 173.412 49.7875 172.485 49.9886C171.558 50.1897 170.6 50.2045 169.667 50.0321C168.733 49.8597 167.844 49.5036 167.05 48.9845" fill="white"/>
<path d="M171.013 50.5178C169.541 50.5199 168.099 50.095 166.862 49.2944C166.773 49.2346 166.711 49.1419 166.689 49.0365C166.668 48.9311 166.689 48.8216 166.748 48.7316C166.776 48.6859 166.813 48.6463 166.857 48.6152C166.901 48.5841 166.951 48.5622 167.003 48.5508C167.056 48.5393 167.11 48.5386 167.163 48.5487C167.216 48.5588 167.266 48.5794 167.311 48.6093C168.06 49.0983 168.898 49.4337 169.778 49.5959C170.658 49.7581 171.561 49.7439 172.435 49.5542C173.309 49.3645 174.137 49.0031 174.87 48.4908C175.603 47.9786 176.227 47.3258 176.706 46.5703C177.176 45.787 177.541 44.9451 177.791 44.0665C178.074 43.3094 178.172 42.4957 178.077 41.6931C177.827 40.7377 177.25 39.9005 176.445 39.3279C176.136 39.0631 175.779 38.8609 175.393 38.7325C174.816 38.6029 174.217 38.6029 173.64 38.7325C172.502 38.8846 171.399 39.2294 170.377 39.752C169.344 40.3428 168.533 41.2569 168.069 42.3537C168.026 42.4532 167.945 42.5315 167.844 42.5712C167.743 42.611 167.63 42.609 167.531 42.5658C167.431 42.5225 167.353 42.4415 167.313 42.3405C167.274 42.2396 167.276 42.127 167.319 42.0275C167.858 40.7704 168.791 39.7227 169.978 39.0424C171.076 38.4703 172.265 38.0949 173.493 37.9332C174.19 37.7659 174.916 37.7659 175.613 37.9332C176.102 38.089 176.554 38.3414 176.943 38.6754C177.905 39.3672 178.583 40.3843 178.851 41.5381C178.976 42.4712 178.869 43.4206 178.541 44.303C178.283 45.2511 177.896 46.1593 177.391 47.0026C176.853 47.8487 176.153 48.5803 175.332 49.1555C174.51 49.7307 173.583 50.1382 172.604 50.3547C172.081 50.4658 171.548 50.5205 171.013 50.5178V50.5178Z" fill="#231F20"/>
<path d="M145.004 61.3977C146.621 61.8525 148.317 61.9552 149.977 61.6992C151.637 61.4431 153.223 60.8342 154.628 59.9134C159.179 56.7652 159.195 54.506 159.195 54.506C159.195 54.506 152.287 56.9528 146.627 54.8241L145.004 61.3977Z" fill="#231F20"/>
<path d="M148.266 62.2542C147.119 62.2636 145.976 62.107 144.874 61.7893C144.777 61.7573 144.695 61.6902 144.645 61.6011C144.596 61.512 144.581 61.4074 144.604 61.3081L146.236 54.7262C146.27 54.615 146.346 54.5215 146.448 54.4653C146.499 54.4433 146.555 54.4319 146.611 54.4319C146.667 54.4319 146.722 54.4433 146.774 54.4653C152.23 56.5124 159.008 54.1635 159.065 54.139C159.128 54.1181 159.194 54.1124 159.259 54.1223C159.325 54.1322 159.387 54.1575 159.44 54.1961C159.494 54.2329 159.537 54.283 159.566 54.3417C159.595 54.4003 159.607 54.4654 159.603 54.5305C159.603 54.6284 159.53 57.0262 154.865 60.2397C152.926 61.5754 150.621 62.279 148.266 62.2542ZM145.493 61.1123C147.001 61.4778 148.568 61.5303 150.097 61.2666C151.626 61.0029 153.085 60.4285 154.383 59.579C157.287 57.5727 158.274 55.9496 158.608 55.1177C156.732 55.6642 151.529 56.9039 146.904 55.3624L145.493 61.1123Z" fill="#231F20"/>
<path d="M156.121 34.7687C156.121 34.7687 150.093 40.7796 150.958 42.2069C151.822 43.6342 155.036 43.4466 155.036 43.4466" fill="white"/>
<path d="M154.653 43.8217C153.666 43.8217 151.39 43.6749 150.575 42.3781C149.62 40.7959 154.335 35.9023 155.803 34.4343C155.879 34.3575 155.984 34.3143 156.092 34.3143C156.201 34.3143 156.305 34.3575 156.382 34.4343C156.458 34.511 156.502 34.6152 156.502 34.7238C156.502 34.8324 156.458 34.9365 156.382 35.0133C153.233 38.1534 150.893 41.326 151.276 41.954C151.88 42.949 154.18 43.0469 155.011 42.998C155.065 42.9947 155.119 43.002 155.169 43.0195C155.22 43.0369 155.267 43.0643 155.307 43.0999C155.347 43.1355 155.38 43.1787 155.404 43.227C155.427 43.2753 155.441 43.3277 155.444 43.3813C155.448 43.4351 155.442 43.4893 155.425 43.5405C155.408 43.5917 155.38 43.639 155.344 43.6794C155.309 43.7198 155.265 43.7525 155.216 43.7755C155.167 43.7986 155.114 43.8115 155.06 43.8136L154.653 43.8217Z" fill="#231F20"/>
<path d="M162.967 35.4766C163.068 34.5723 162.628 33.7808 161.983 33.7086C161.339 33.6364 160.734 34.3109 160.633 35.2152C160.532 36.1194 160.972 36.9109 161.617 36.9831C162.261 37.0553 162.866 36.3808 162.967 35.4766Z" fill="#231F20"/>
<path d="M152.019 33.7255C152.382 32.8912 152.194 32.005 151.6 31.7461C151.005 31.4871 150.229 31.9535 149.865 32.7877C149.502 33.6219 149.69 34.5081 150.284 34.7671C150.879 35.026 151.656 34.5597 152.019 33.7255Z" fill="#231F20"/>
<path d="M160.672 50.8359C160.566 50.8349 160.464 50.7941 160.386 50.7217C156.765 47.2473 146.978 45.1104 146.88 45.086C146.828 45.0754 146.778 45.0544 146.734 45.0243C146.69 44.9942 146.653 44.9556 146.624 44.9107C146.595 44.8659 146.575 44.8157 146.566 44.7632C146.557 44.7106 146.558 44.6568 146.57 44.6048C146.581 44.5523 146.602 44.5024 146.632 44.458C146.662 44.4136 146.7 44.3756 146.745 44.3461C146.79 44.3165 146.84 44.2961 146.892 44.2859C146.945 44.2757 146.999 44.276 147.051 44.2867C147.459 44.3764 157.157 46.4969 160.916 50.1345C160.975 50.1906 161.015 50.2627 161.032 50.3416C161.049 50.4206 161.042 50.5029 161.013 50.5781C160.983 50.6532 160.932 50.7179 160.865 50.7638C160.799 50.8097 160.72 50.8348 160.639 50.8359H160.672Z" fill="#231F20"/>
<path d="M211.312 138.52C211.223 138.521 211.137 138.492 211.067 138.439L199.037 129.206C198.952 129.139 198.896 129.041 198.881 128.933C198.865 128.825 198.892 128.716 198.956 128.627C199.023 128.544 199.12 128.489 199.226 128.476C199.333 128.462 199.44 128.49 199.527 128.554L211.565 137.794C211.63 137.847 211.678 137.919 211.701 138C211.725 138.081 211.722 138.167 211.695 138.247C211.667 138.326 211.615 138.395 211.547 138.444C211.478 138.493 211.396 138.52 211.312 138.52V138.52Z" fill="#231F20"/>
<path d="M178.174 37.1094H178.068C177.965 37.0808 177.877 37.0125 177.823 36.9193C177.77 36.8262 177.755 36.7157 177.783 36.6119C178.998 32.0935 180.181 27.4936 181.298 22.9263L181.42 22.4451C181.983 20.5249 182.295 18.5403 182.35 16.5402C182.301 15.1047 181.649 14.909 179.593 14.909C179.539 14.9109 179.485 14.9017 179.435 14.8821C179.384 14.8624 179.338 14.8328 179.3 14.7948C179.224 14.719 179.18 14.6167 179.177 14.5094C179.161 13.5042 178.914 12.5162 178.455 11.6213C177.997 10.7263 177.34 9.94824 176.535 9.34667C173.811 7.34847 169.823 6.89989 165.582 8.2293L165.369 8.29455C161.145 9.58319 157.499 10.6924 152.883 10.8637C151.994 10.8637 151.072 10.8637 150.183 10.8637C148.176 10.775 146.166 10.9091 144.189 11.2633C142.955 11.5692 141.742 11.9561 140.559 12.4214C139.544 12.7258 138.591 13.2092 137.745 13.8487C136.903 14.6685 136.248 15.6621 135.829 16.7604C135.352 17.7203 135.009 18.7412 134.809 19.7944C134.336 23.0568 136.44 25.9195 137.77 27.3631C138.585 28.2603 139.825 29.2634 141.032 28.9372C141.086 28.9227 141.142 28.919 141.197 28.9261C141.252 28.9332 141.305 28.9511 141.353 28.9788C141.401 29.0064 141.443 29.0433 141.477 29.0872C141.511 29.1312 141.536 29.1813 141.55 29.2349C141.565 29.2884 141.568 29.3443 141.561 29.3993C141.554 29.4543 141.536 29.5074 141.509 29.5555C141.481 29.6036 141.444 29.6458 141.4 29.6796C141.356 29.7135 141.306 29.7383 141.252 29.7528C139.98 30.1035 138.569 29.4755 137.174 27.9422C135.78 26.4089 133.488 23.2688 134.018 19.7047C134.224 18.5716 134.59 17.4733 135.103 16.4423C135.583 15.232 136.317 14.1389 137.256 13.237C138.175 12.5368 139.21 12.0039 140.314 11.6629C141.531 11.1822 142.779 10.787 144.05 10.4803C146.088 10.1072 148.162 9.96494 150.232 10.0562C151.113 10.0562 152.018 10.0562 152.899 10.0562C157.401 9.88496 161.006 8.79206 165.174 7.51974L165.386 7.45449C169.872 6.09245 174.121 6.54918 177.057 8.69419C177.907 9.3326 178.611 10.1453 179.122 11.0779C179.632 12.0105 179.938 13.0414 180.018 14.1016C181.486 14.1016 183.133 14.2647 183.206 16.5483C183.156 18.6228 182.835 20.6819 182.252 22.6734L182.13 23.1546C181.013 27.722 179.822 32.3301 178.607 36.8566C178.573 36.9408 178.512 37.0114 178.434 37.0572C178.356 37.103 178.264 37.1214 178.174 37.1094Z" fill="#231F20"/>
<path d="M164.749 71.0707C164.749 71.0707 160.141 66.6501 158.918 61.2428C157.695 55.8354 158.168 54.6691 157.328 54.4815C156.487 54.2939 155.068 54.8648 154.016 56.7081C152.964 58.5513 153.25 65.0353 154.962 67.6452C156.675 70.2551 164.749 71.0707 164.749 71.0707Z" fill="white"/>
<path d="M164.75 71.4704H164.709C164.375 71.4296 156.423 70.5977 154.62 67.8573C152.818 65.1169 152.508 58.5025 153.666 56.4961C154.824 54.4898 156.357 53.8454 157.409 54.0493C158.168 54.2125 158.225 54.8649 158.445 56.2433C158.584 57.2546 158.788 58.7879 159.318 61.1368C160.501 66.3566 164.986 70.72 165.027 70.7608C165.086 70.8212 165.125 70.8973 165.141 70.9799C165.157 71.0625 165.149 71.1479 165.117 71.2257C165.085 71.2968 165.033 71.3574 164.968 71.4007C164.903 71.444 164.828 71.4681 164.75 71.4704V71.4704ZM157.018 54.8568C156.357 54.8568 155.248 55.3624 154.367 56.8958C153.486 58.4291 153.633 64.8722 155.305 67.4087C156.431 69.1296 161.014 70.1247 163.665 70.5162C162.262 68.9665 159.457 65.4513 158.527 61.3244C157.989 58.9592 157.776 57.4014 157.638 56.3738C157.475 55.1912 157.418 54.9139 157.238 54.8731C157.165 54.8617 157.091 54.8589 157.018 54.8649V54.8568Z" fill="#231F20"/>
<path d="M96.6395 97.7242C96.6395 97.7242 76.1518 148.136 83.8347 163.469C91.5176 178.802 167.082 185.653 167.082 185.653C167.082 185.653 176.69 189.731 179.675 190.351C182.66 190.971 193.98 191.632 193.98 191.632C193.98 191.632 189.707 192.447 191.199 193.76C192.692 195.073 200.986 195.041 201.875 192.056C202.764 189.071 200.383 177.114 197.797 175.189C195.212 173.264 166.201 166.218 164.073 166.014C161.944 165.81 114.126 149.221 114.126 149.221L120.316 102.406" fill="white"/>
<path d="M195.285 195C193.385 195 191.631 194.682 190.938 194.086C190.767 193.971 190.634 193.806 190.557 193.614C190.48 193.423 190.462 193.212 190.506 193.01C190.624 192.754 190.794 192.525 191.004 192.337C191.215 192.149 191.462 192.006 191.729 191.917C188.263 191.697 181.787 191.232 179.593 190.759C176.69 190.139 167.865 186.436 166.984 186.069C163.086 185.71 91.1342 178.957 83.4676 163.649C80.2053 157.181 81.4123 144.074 86.9665 124.72C91.0445 110.35 96.2153 97.6998 96.2643 97.5693C96.3054 97.4687 96.3847 97.3886 96.4849 97.3465C96.5851 97.3045 96.6979 97.3039 96.7985 97.345C96.8991 97.3861 96.9792 97.4655 97.0213 97.5657C97.0633 97.6658 97.0639 97.7786 97.0228 97.8792C96.8189 98.3849 76.69 148.258 84.2016 163.29C91.7133 178.321 166.364 185.197 167.123 185.262C167.161 185.254 167.199 185.254 167.237 185.262C167.335 185.303 176.845 189.34 179.765 189.935C182.684 190.531 193.891 191.199 194.005 191.207C194.103 191.213 194.196 191.254 194.267 191.323C194.337 191.392 194.38 191.484 194.388 191.583C194.393 191.681 194.363 191.779 194.303 191.858C194.243 191.937 194.158 191.992 194.062 192.015C192.83 192.26 191.395 192.83 191.297 193.189C191.297 193.246 191.37 193.352 191.468 193.434C192.284 194.135 196.199 194.527 199.119 193.654C200.048 193.369 201.223 192.839 201.484 191.925C202.348 188.907 199.853 177.245 197.577 175.499C195.302 173.754 166.642 166.658 164.056 166.405C161.895 166.185 115.936 150.265 114.012 149.588C113.923 149.558 113.848 149.499 113.799 149.42C113.75 149.341 113.73 149.248 113.742 149.156L119.933 102.332C119.94 102.279 119.957 102.227 119.984 102.18C120.011 102.134 120.047 102.092 120.09 102.06C120.132 102.027 120.181 102.002 120.233 101.988C120.286 101.974 120.34 101.971 120.394 101.978C120.447 101.985 120.499 102.002 120.546 102.029C120.592 102.056 120.633 102.092 120.666 102.135C120.699 102.177 120.724 102.226 120.738 102.278C120.752 102.33 120.755 102.385 120.748 102.438L114.599 148.927C131.212 154.685 162.507 165.427 164.146 165.59C165.785 165.753 195.277 172.751 198.075 174.847C200.872 176.943 203.148 189.095 202.275 192.154C201.989 193.157 200.978 193.948 199.363 194.437C198.037 194.814 196.664 195.003 195.285 195Z" fill="#231F20"/>
<path d="M183.304 112.454C183.304 112.454 169.545 77.2203 165.679 71.4214C161.813 65.6226 144.849 51.4639 142.737 52.8749C140.624 54.2858 141.244 55.8599 142.125 56.9528C143.006 58.0457 147.924 61.4304 147.924 61.4304C147.924 61.4304 142.386 58.8858 142.215 62.246C142.043 65.6063 146.293 67.6126 146.293 67.6126C146.293 67.6126 141.636 64.179 141.456 67.8736C141.433 68.9511 141.731 70.0111 142.312 70.9188C142.893 71.8265 143.73 72.5409 144.719 72.9711C144.719 72.9711 139.76 68.7626 140.233 73.1505C141.048 80.3603 155.533 88.973 155.533 88.973L161.683 148.895C161.683 148.895 163.885 183.647 186.061 182.595C214.517 181.241 222.763 140.184 208.539 105.464" fill="white"/>
<path d="M185.034 182.97C163.632 182.97 161.251 149.204 161.226 148.862L155.101 89.1605C153.356 88.1003 140.551 80.1075 139.785 73.1341C139.654 71.9434 139.899 71.1767 140.51 70.8505C140.882 70.6731 141.306 70.6382 141.701 70.7526C141.187 69.857 140.947 68.8308 141.008 67.8002C140.979 67.4147 141.059 67.0289 141.239 66.687C141.42 66.3451 141.693 66.0609 142.027 65.8672C142.389 65.7107 142.788 65.6598 143.177 65.7204C142.267 64.7663 141.772 63.4908 141.799 62.1726C141.797 61.8243 141.882 61.4811 142.047 61.1746C142.213 60.8681 142.453 60.6083 142.745 60.4191C143.62 60.019 144.608 59.941 145.534 60.1989C144.216 59.2903 142.97 58.2814 141.807 57.1812C141.468 56.8658 141.211 56.4723 141.058 56.035C140.905 55.5976 140.861 55.1296 140.93 54.6715C140.999 54.2134 141.179 53.7791 141.454 53.4063C141.729 53.0335 142.091 52.7335 142.509 52.5323C144.058 51.4965 150.257 56.2188 153.805 59.1304C158.38 62.874 163.926 68.0612 166.038 71.193C169.88 76.9674 183.166 110.863 183.704 112.307C183.741 112.408 183.737 112.519 183.693 112.617C183.649 112.714 183.568 112.791 183.468 112.829C183.419 112.85 183.366 112.861 183.312 112.86C183.259 112.86 183.206 112.849 183.157 112.827C183.108 112.806 183.064 112.775 183.028 112.736C182.992 112.697 182.964 112.651 182.946 112.601C182.807 112.25 169.154 77.3508 165.353 71.6498C163.583 68.9909 158.747 64.2116 153.307 59.7584C146.725 54.3674 143.52 52.8748 142.982 53.2337C142.675 53.3964 142.407 53.6223 142.195 53.8965C141.983 54.1707 141.831 54.4869 141.75 54.8241C141.736 55.1641 141.791 55.5034 141.911 55.8216C142.032 56.1397 142.216 56.4302 142.451 56.6755C143.145 57.4911 146.815 60.1336 148.161 61.0797C148.243 61.139 148.301 61.2271 148.322 61.3267C148.343 61.4263 148.326 61.5302 148.275 61.618C148.226 61.7078 148.145 61.7757 148.048 61.8075C147.951 61.8394 147.845 61.8328 147.753 61.7893C146.856 61.3733 144.287 60.4598 143.169 61.1368C142.991 61.2559 142.846 61.419 142.749 61.6105C142.651 61.8019 142.605 62.0152 142.615 62.2297C142.517 64.1218 144.001 65.5736 145.151 66.4137C145.62 66.651 146.07 66.9236 146.497 67.2293C146.574 67.2908 146.626 67.3784 146.644 67.4757C146.662 67.5729 146.643 67.6733 146.592 67.758C146.542 67.8428 146.462 67.9062 146.368 67.9364C146.273 67.9667 146.172 67.9617 146.081 67.9225C145.6 67.6878 145.14 67.415 144.703 67.1069C143.887 66.6747 142.916 66.381 142.378 66.6339C142.044 66.7888 141.856 67.2048 141.823 67.8654C141.785 68.5081 141.882 69.1517 142.108 69.7545C142.334 70.3573 142.685 70.9058 143.137 71.3643C143.772 71.7348 144.374 72.1576 144.939 72.6285C145.012 72.6916 145.061 72.7788 145.076 72.8745C145.091 72.9701 145.071 73.0679 145.021 73.1505C144.97 73.2336 144.891 73.2957 144.798 73.3257C144.705 73.3556 144.605 73.3513 144.515 73.3136C143.842 73.0082 143.229 72.5857 142.704 72.0657C141.962 71.6498 141.261 71.3969 140.894 71.5927C140.527 71.7884 140.502 72.2696 140.592 73.0689C141.35 79.9933 155.55 88.4999 155.689 88.5652C155.744 88.5975 155.792 88.6423 155.827 88.6961C155.862 88.7499 155.885 88.8112 155.892 88.8751L162.042 148.797C162.042 149.155 164.44 183.174 185.988 182.13C194.919 181.706 202.34 177.236 207.471 169.178C217.192 153.919 217.453 128.35 208.115 105.562C208.076 105.462 208.078 105.352 208.119 105.253C208.16 105.154 208.237 105.075 208.335 105.032C208.436 104.993 208.548 104.994 208.648 105.035C208.748 105.076 208.829 105.154 208.873 105.252C218.302 128.276 218.016 154.139 208.156 169.619C202.887 177.897 195.228 182.505 186.029 182.945L185.034 182.97Z" fill="#231F20"/>
<path d="M182.595 111.1C182.595 111.1 193.695 141.277 196.541 151.227Z" fill="white"/>
<path d="M196.541 151.635C196.453 151.636 196.366 151.608 196.295 151.555C196.225 151.502 196.173 151.427 196.15 151.341C193.336 141.513 182.326 111.54 182.211 111.239C182.191 111.188 182.182 111.134 182.183 111.079C182.184 111.025 182.197 110.971 182.219 110.921C182.242 110.872 182.274 110.827 182.314 110.79C182.354 110.753 182.401 110.724 182.452 110.706C182.503 110.687 182.558 110.679 182.612 110.682C182.667 110.685 182.72 110.698 182.769 110.722C182.818 110.746 182.862 110.78 182.898 110.821C182.934 110.862 182.961 110.909 182.978 110.961C183.084 111.263 194.111 141.261 196.933 151.121C196.961 151.225 196.948 151.335 196.896 151.43C196.844 151.524 196.758 151.595 196.656 151.627L196.541 151.635Z" fill="#231F20"/>
<path d="M122.119 82.073C122.119 82.9294 120.406 98.866 120.406 98.866Z" fill="#231F20"/>
<path d="M120.406 99.2658H120.365C120.258 99.2535 120.16 99.1994 120.093 99.1154C120.026 99.0314 119.995 98.9242 120.006 98.8172C120.479 94.3967 121.711 82.7582 121.711 82.0731C121.711 81.9649 121.754 81.8612 121.83 81.7847C121.907 81.7083 122.01 81.6653 122.119 81.6653C122.227 81.6653 122.33 81.7083 122.407 81.7847C122.483 81.8612 122.526 81.9649 122.526 82.0731C122.526 82.9376 120.895 98.2544 120.822 98.9069C120.81 99.0078 120.76 99.1005 120.683 99.1669C120.606 99.2333 120.507 99.2685 120.406 99.2658Z" fill="#231F20"/>
<path d="M48.7479 51.8471C48.2749 45.7547 50.6727 41.7501 57.434 36.9055C63.5265 32.6155 65.2637 30.3808 65.0027 26.9797C64.6846 22.9018 60.9981 20.6589 55.5011 21.083C48.7072 21.6131 44.8576 26.3273 44.9636 34.1325L30.0954 34.1814C29.4429 19.2642 39.1729 8.75941 54.5631 7.56864C68.2488 6.50837 78.8759 14.02 79.7486 25.3078C80.2869 32.1995 77.3018 37.3541 69.6597 42.8675C63.4857 47.4674 62.1237 49.278 62.3928 52.7769L62.6619 56.2758L49.1721 57.3442L48.7479 51.8471ZM48.7479 64.3094L64.6683 63.0697L65.8672 78.5659L49.9061 79.7893L48.7479 64.3094Z" fill="#231F20"/>
<path d="M132.24 35.9677C134.581 36.4407 134.834 32.4362 132.362 32.8847C131.997 32.9336 131.66 33.1098 131.412 33.3824C131.164 33.6549 131.02 34.0064 131.005 34.3748C130.991 34.7432 131.106 35.1049 131.332 35.3963C131.558 35.6877 131.88 35.89 132.24 35.9677V35.9677Z" fill="white"/>
<path d="M132.615 36.3999C132.462 36.3993 132.309 36.383 132.158 36.351C131.713 36.2801 131.308 36.0503 131.018 35.7039C130.729 35.3576 130.575 34.9182 130.584 34.467C130.588 33.9864 130.76 33.5224 131.072 33.1569C131.384 32.7913 131.815 32.5476 132.289 32.4688C132.642 32.3782 133.015 32.3985 133.356 32.5269C133.698 32.6553 133.991 32.8855 134.197 33.1865C134.426 33.5565 134.541 33.985 134.53 34.4196C134.518 34.8542 134.38 35.276 134.132 35.6333C133.963 35.8776 133.736 36.0757 133.471 36.2096C133.206 36.3435 132.912 36.409 132.615 36.3999ZM132.362 35.5843C132.572 35.6454 132.796 35.638 133.001 35.5632C133.207 35.4884 133.383 35.3501 133.504 35.1684C133.649 34.9452 133.73 34.6867 133.739 34.4208C133.747 34.1548 133.683 33.8916 133.553 33.6595C133.433 33.4953 133.265 33.3725 133.072 33.3081C132.879 33.2438 132.671 33.2412 132.477 33.3007C132.19 33.35 131.93 33.4975 131.741 33.7178C131.552 33.9381 131.446 34.2175 131.441 34.5078C131.433 34.7698 131.523 35.0254 131.693 35.2245C131.864 35.4236 132.102 35.5519 132.362 35.5843V35.5843Z" fill="#D1D3D4"/>
<path d="M52.3691 139.98C52.4729 138.603 52.142 137.228 51.4231 136.049C50.7178 135.251 50.0536 134.418 49.433 133.553C48.6174 131.922 49.1802 130.071 48.9844 128.317C48.7882 126.806 48.049 125.417 46.9047 124.41C45.8689 123.481 44.5395 122.844 43.5444 121.874C41.9132 120.292 41.4565 118.057 40.5349 116.075C39.1341 113.183 36.8488 110.812 34.0102 109.306C35.78 112.462 31.751 116.475 33.5779 119.607C34.157 120.593 35.258 121.319 35.6821 122.371C36.7098 124.908 33.3006 127.656 34.3853 130.177C34.9318 131.433 36.4569 132.159 37.1583 133.349C38.1126 134.981 37.3622 136.905 37.4438 138.724C37.5498 141.228 39.2707 143.463 41.3097 145.2C42.582 146.276 43.993 147.214 45.3877 148.185C47.0189 149.351 47.7284 150.583 49.172 148.707C51.1414 146.214 52.2616 143.156 52.3691 139.98V139.98Z" fill="#D1D3D4"/>
<path d="M56.0393 141.163C55.5091 139.222 55.1339 137.126 56.0393 135.299C57.0506 133.227 59.5545 131.767 59.8481 129.532C60.0438 128.064 59.2038 126.58 59.53 125.136C59.8562 123.693 61.1612 122.69 62.2948 121.637C64.776 119.276 66.2954 116.081 66.5604 112.666C68.2366 114.414 69.6143 116.425 70.6384 118.62C71.1243 119.697 71.3248 120.881 71.2205 122.058C71.1162 123.235 70.7107 124.365 70.043 125.34C69.629 125.785 69.2827 126.287 69.0153 126.833C68.5178 128.26 69.8962 129.589 70.6465 130.911C71.0674 131.674 71.2453 132.548 71.1564 133.415C71.0675 134.282 70.716 135.101 70.149 135.763C68.7054 137.395 65.9242 137.982 65.2555 139.923C65.0771 140.646 64.9922 141.389 65.0026 142.133C64.7913 143.482 64.1763 144.736 63.2388 145.729C62.3012 146.722 61.085 147.407 59.7502 147.696C58.0375 148.054 58.119 147.459 57.7683 146.187C57.2463 144.523 56.5123 142.867 56.0393 141.163Z" fill="#D1D3D4"/>
<path d="M50.6076 127.232C49.3924 123.513 48.903 119.623 47.6307 115.92C46.5321 113.008 45.2039 110.188 43.6588 107.487L48.8622 109.428C50.4934 110.056 52.3367 110.79 53.1278 112.234C54.498 114.754 52.0349 117.984 53.4703 120.471C54.0986 121.287 54.7884 122.053 55.5338 122.763C57.0671 124.671 56.8306 127.298 55.9905 129.516C55.6316 130.47 54.0494 135.413 52.6384 134.043C52.0757 133.488 52.0267 131.441 51.8228 130.691C51.4313 129.532 50.9828 128.391 50.6076 127.232Z" fill="#D1D3D4"/>
<path d="M49.8571 161.65C48.9437 154.922 48.1525 149.082 48.1444 148.984L47.3288 149.09C47.3288 149.188 48.1444 154.963 49.0252 161.65H49.8571Z" fill="#D1D3D4"/>
<path d="M56.8876 161.65C58.005 152.956 59.1631 146.505 59.8156 145.787L59.2121 145.241C58.3067 146.236 57.0834 153.78 56.072 161.65H56.8876Z" fill="#D1D3D4"/>
<path d="M55.8926 161.65C55.0036 145.934 53.4458 130.34 53.4458 130.136L52.6302 130.218C52.6302 130.421 54.2614 145.975 55.077 161.65H55.8926Z" fill="#D1D3D4"/>
<path d="M41.7664 152.312H64.8313L63.2001 169.651C62.9228 172.653 59.5626 174.985 55.5172 174.985H51.056C46.978 174.985 43.6504 172.653 43.3649 169.651L41.7664 152.312Z" fill="#D1D3D4"/>
</svg>
